<svg xmlns="http://www.w3.org/2000/svg" data-name="Layer 1" viewBox="0 0 1171 834.69">
  <defs/>
  <path fill="#f2f2f2" d="M1124.08 191.42L652.66 394.05l67.93 187.33 48.55 133.86 12.2 33.67 108.64 41.23 3.93 1.49 113.47 43.06 54.48-23.3 74.21-31.9 34.93-15.01-46.92-573.06z"/>
  <path fill="#2f2e41" d="M1136.44 760.21l-.1 4.86-.27 14.42-74.21 31.9-50.11 21.54-2.12-7.07-2.25 8.83-113.47-43.06-1.76-41.56v-.02l-.39-9.23 222.31-14.93 4.36 6.68.86 1.33 17.15 26.31z"/>
  <path fill="#ffb8b8" d="M975.31 318.6s-14.92 53.7-17.9 53.7 28.34 41.78 28.34 41.78l46.25 25.36 16.42-68.63s-14.92-37.3-11.94-56.7z"/>
  <circle cx="999.18" cy="284.28" r="55.2" fill="#ffb8b8"/>
  <path fill="#ecc31f" d="M1006.64 399.16l-44.1-38.3-26.02 12.94-56.7 35.8s14.92 322.26 7.46 334.2c0 0 16.42 37.3 113.4 14.92S1123 733.36 1123 733.36l-20.88-196.94 25.36-123.83-85.2-59.58-26.7 46.15z"/>
  <path fill="#ffb8b8" d="M842.53 524.48s-22.38 70.12-5.97 77.58 29.84 4.48 29.84 4.48l25.36-61.17zM1152.85 512.55l13.43 62.66v126.82s-19.4 80.56-34.31 59.67-14.62-27.5-14.62-27.5l19.1-29.2-8.96-119.35-23.79-56.93z"/>
  <path fill="#2f2e41" d="M1051.4 229.08s-17.9-38.8-52.22-29.84-53.7 22.38-55.2 35.8.74 33.57.74 33.57 3.73-27.6 27.6-21.63 61.18 1.5 61.18 1.5l5.96 53.7s6.72-9.7 14.18-3.73 21.63-57.44-2.24-69.37z"/>
  <path fill="#3f3d56" d="M1104.1 524.87l5.39 28.05 52.88-14.03-9.72-25.89-48.55 11.87zM841.54 523.99l-8.43 27.3 53.27 12.48 3.6-27.43-48.44-12.35z"/>
  <path fill="#ecc31f" d="M1093.17 409.6l34.32 2.99s38.79 105.92 34.31 108.9-58.18 20.9-65.64 16.42-2.99-128.3-2.99-128.3zM891.76 412.59l-11.94-2.99s-22.37 28.35-29.83 61.17-17.9 65.65-11.94 65.65 59.68 20.89 59.68 20.89z"/>
  <circle cx="1012.37" cy="409.4" r="10.79" fill="#3f3d56"/>
  <path fill="#e6e6e6" d="M1095.69 600.2l-115.27 36.34-47.05-149.24q66.63-9.34 115.27-36.33c6.01 50.9 21.37 100.68 47.05 149.23z"/>
  <path fill="#fff" d="M1084.9 616.38l-115.27 36.34-47.05-149.23q66.62-9.34 115.27-36.34c6.01 50.9 21.37 100.69 47.04 149.23z"/>
  <path fill="#ffb8b8" d="M849.99 558.8s-17.9 32.82-13.43 43.26 41.77 16.42 46.25 16.42S941 606.54 941 606.54s82.05-38.8 58.18-58.19-68.63 26.86-68.63 26.86h-35.8l-19.4-13.43z"/>
  <path fill="#f2f2f2" d="M1 134.83h195V222H1z"/>
  <path fill="#3f3d56" d="M676 418h34v30h-34zM608 418h34v30h-34z"/>
  <path fill="#ecc31f" d="M744 352h34v34h-34z"/>
  <path fill="#3f3d56" d="M710 386h34v32h-34zM642 386h34v32h-34z"/>
  <path fill="#ecc31f" d="M239 446h34v30h-34z"/>
  <path fill="#3f3d56" d="M545 414h34v32h-34zM341 414h34v32h-34zM307 380h34v34h-34zM477 414h34v32h-34zM443 380h34v34h-34zM409 414h34v32h-34zM273 414h34v32h-34z"/>
  <path fill="#ecc31f" d="M511 380h34v34h-34z"/>
  <path fill="#3f3d56" d="M664.74 327.5l-17.66-18.94 18.94-17.67 17.66 18.94zm-14.85-18.84l14.95 16.02 16.02-14.95-14.94-16.02zM425.66 249.58h-25.9v-25.9h25.9zm-23.9-1.99h21.9v-21.91h-21.9zM906.66 199.58h-25.9v-25.9h25.9zm-23.9-1.99h21.9v-21.91h-21.9zM254.43 464.07l-1.53-1.5a78.18 78.18 0 0015.68-27.43c5.2-15.66 7.75-40.39-9.7-69.28-17.84-29.56-18.65-53.57-16.18-68.5 2.69-16.26 9.54-25.36 9.83-25.74l1.7 1.3c-.07.08-6.86 9.14-9.44 24.91-2.38 14.56-1.55 37.99 15.92 66.92 17.9 29.63 15.24 55.05 9.87 71.16-5.82 17.45-15.73 27.73-16.15 28.16zM524.43 396.07l-1.53-1.5a78.18 78.18 0 0015.68-27.43c5.2-15.66 7.75-40.39-9.7-69.28-17.84-29.56-18.65-53.57-16.18-68.5 2.69-16.26 9.54-25.36 9.83-25.74l1.7 1.3c-.07.08-6.86 9.14-9.44 24.91-2.38 14.56-1.55 37.99 15.92 66.92 17.9 29.63 15.24 55.05 9.87 71.16-5.82 17.45-15.73 27.73-16.15 28.16zM759.43 370.07l-1.53-1.5a78.18 78.18 0 0015.68-27.43c5.2-15.66 7.75-40.39-9.7-69.28-17.84-29.56-18.65-53.57-16.18-68.5 2.69-16.26 9.54-25.36 9.83-25.74l1.7 1.3c-.07.08-6.86 9.14-9.44 24.91-2.38 14.56-1.55 37.99 15.92 66.92 17.9 29.63 15.24 55.05 9.87 71.16-5.82 17.45-15.73 27.73-16.15 28.16zM51.44 162.35h94.11v2.14H51.44zM51.44 177.35h94.11v2.14H51.44zM51.44 192.35h94.11v2.14H51.44zM578.44 19.35h94.11v2.14h-94.11zM578.44 34.35h94.11v2.14h-94.11zM578.44 49.35h94.11v2.14h-94.11zM799.44 351.35h94.11v2.14h-94.11zM799.44 366.35h94.11v2.14h-94.11zM799.44 381.35h94.11v2.14h-94.11zM208.44 501.35h94.11v2.14h-94.11zM208.44 516.35h94.11v2.14h-94.11zM208.44 531.35h94.11v2.14h-94.11z"/>
  <path fill="#2f2e41" d="M137.86 110.62c16.26-36.47 40.77-60.46 72.84-71.31 23.81-8.05 51.35-8.81 81.85-2.26a218.89 218.89 0 0163.95 24.84c105.88 61.45 171.34 62 207.61 51.63 39.77-11.36 54.33-38.02 54.47-38.29l1.77.94c-.15.27-15.03 27.63-55.6 39.25-23.4 6.7-50.73 6.98-81.24.82-37.97-7.66-81.04-25.36-128.01-52.62A216.9 216.9 0 00292.13 39c-50.02-10.74-117.08-6.9-152.44 72.44z"/>
  <circle cx="256" cy="237" r="36" fill="#3f3d56"/>
  <circle cx="528" cy="174" r="36" fill="#3f3d56"/>
  <circle cx="763" cy="142" r="36" fill="#3f3d56"/>
  <path fill="#3f3d56" d="M223 223H0V109h223zM2 221h219V111H2z"/>
  <path fill="#f2f2f2" d="M282 59.83h195V147H282z"/>
  <path fill="#3f3d56" d="M332.44 87.35h94.11v2.14h-94.11zM332.44 102.35h94.11v2.14h-94.11zM329.44 114.35h94.11v2.14h-94.11z"/>
  <path fill="#3f3d56" d="M504 148H281V34h223zm-221-2h219V36H283z"/>
  <path fill="#f2f2f2" d="M785 25.83h195V113H785z"/>
  <path fill="#3f3d56" d="M835.44 53.35h94.11v2.14h-94.11zM835.44 68.35h94.11v2.14h-94.11zM835.44 83.35h94.11v2.14h-94.11z"/>
  <path fill="#3f3d56" d="M1007 114H784V0h223zm-221-2h219V2H786z"/>
</svg>
