<svg xmlns="http://www.w3.org/2000/svg" data-name="Layer 1" viewBox="0 0 906 749.52">
  <defs/>
  <path fill="#f2f2f2" d="M675.42 719.04a143 143 0 00190.36-212.46zM325.7 222.81L149 417.62a143.52 143.52 0 0042.42 53.42l190.36-212.46a143.07 143.07 0 00-56.07-35.77z"/>
  <path fill="#fed36e" d="M325 222.91V109h-93v113.56a143.62 143.62 0 0193 .35zM232 491.44V608h93V491.09a143.62 143.62 0 01-93 .35z"/>
  <path d="M279 500.5c-79.13 0-143.5-64.37-143.5-143.5S199.87 213.5 279 213.5 422.5 277.87 422.5 357 358.13 500.5 279 500.5zm0-286c-78.57 0-142.5 63.93-142.5 142.5S200.43 499.5 279 499.5 421.5 435.57 421.5 357 357.57 214.5 279 214.5z"/>
  <path fill="#575a89" d="M178 357a101 101 0 00101 101V256a101 101 0 00-101 101z"/>
  <path fill="#fed36e" d="M279 256v202a101 101 0 000-202z"/>
  <circle cx="279" cy="362" r="14" fill="#2f2e41"/>
  <path fill="#2f2e41" d="M278.98 310.66l3.48 27.67 3.49 27.67H272l3.49-27.67 3.49-27.67z"/>
  <path fill="#2f2e41" d="M362.48 362.79l-45.52 1.7-45.51 1.7.03-3.98.02-3.97 45.49 2.27 45.49 2.28z"/>
  <path d="M427.5 369c-2.32 0-3.25-1.6-4.43-3.6-.3-.5-.62-1.05-1-1.63l.85-.54c.38.59.7 1.14 1 1.66 1.19 2 1.84 3.11 3.58 3.11 5.79 0 10.5-9.65 10.5-21.5s-4.71-21.5-10.5-21.5c-3.34 0-5.67 2.06-7.54 6.69l-.92-.38c2.04-5.05 4.65-7.31 8.46-7.31 6.34 0 11.5 10.1 11.5 22.5s-5.16 22.5-11.5 22.5z"/>
  <ellipse cx="293" cy="709" fill="#f2f2f2" rx="136" ry="5"/>
  <circle cx="774" cy="160" r="21" fill="#f2f2f2"/>
  <path fill="#f2f2f2" d="M143 0A143.05 143.05 0 0013 202.62L189.7 7.82A142.78 142.78 0 00143 0z"/>
  <circle cx="618.14" cy="234.46" r="31.24" fill="#2f2e41"/>
  <path fill="#ffb9b9" d="M565.58 430.28s24.94 63.01 27.57 63.01 6.56-23.63 6.56-23.63l-15.75-44.63zM602.34 258.33s6.56 27.56 3.94 32.81 5.25 13.13 5.25 13.13h18.37l13.13-21 2.62-9.19s-7.87-21-6.56-23.63-36.75 7.88-36.75 7.88z"/>
  <path d="M602.34 258.33s6.56 27.56 3.94 32.81 5.25 13.13 5.25 13.13h18.37l13.13-21 2.62-9.19s-7.87-21-6.56-23.63-36.75 7.88-36.75 7.88z" opacity=".1"/>
  <path fill="#575a89" d="M675.85 704.62v14.44l17.06 3.94 1.31-18.38h-18.37z"/>
  <path fill="#2f2e41" d="M606.28 446.04s-18.38 32.81-11.82 49.88 31.5 101.07 31.5 101.07 14.44 47.25 14.44 49.88 11.82 60.38 15.76 61.7 39.37 5.24 40.69 1.3 2.62-24.94-1.32-28.87-24.94-126.02-24.94-126.02l-2.62-40.69 32.81 101.07s9.2 60.39 13.13 64.32-7.87 7.88-3.94 11.82 18.38 14.44 17.07 18.37 31.5 3.94 35.44 1.32 2.62-43.32 2.62-43.32l-18.37-55.13-21-133.89s-6.57-39.38-11.82-39.38-107.63 6.57-107.63 6.57z"/>
  <path fill="#2f2e41" d="M679.78 713.81s-10.5-9.19-15.75-6.56-22.31 27.56-27.56 26.25-13.13 14.13 0 15.44 34.12-1.31 34.12-1.31a101.35 101.35 0 0013.13 1.31c5.25 0 17.06 1.31 17.06 0s-2.62-31.19-3.93-31.19-15.75 0-17.07-3.94zM751.98 704.62s-13.13-2.62-14.44 0-6.56 10.5-6.56 11.82 2.62 17.06 2.62 18.37 2.63 5.25 5.25 7.88a4.63 4.63 0 011.31 5.25s34.13 3.94 34.13-1.31-3.94-17.07-6.56-19.7-7.88-21-15.75-22.3z"/>
  <circle cx="618.09" cy="242.58" r="27.57" fill="#ffb9b9"/>
  <path fill="#fed36e" d="M607.59 292.46s15.75 9.19 24.94-5.25 38.06 28.87 38.06 28.87l7.88 133.9s-14.44 1.3-39.38 7.87-36.75-9.19-36.75-9.19l-1.32-76.13 2.63-35.44-3.94-28.88 2.63-17.07zM578.71 309.52s-10.5 2.63-13.13 21-7.87 73.51-7.87 73.51l6.56 32.82s18.38-14.44 24.94-7.88l-3.94-19.69 3.94-11.81-11.81-51.2z"/>
  <path fill="#575a89" d="M604.82 270.14s-2.48 0-2.48 9.2-24.94 22.3-24.94 22.3-2.63 3.94-2.63 14.44 0 35.45 2.63 43.32 6.56 34.13 7.87 36.75 1.32 14.44-1.31 17.07 6.56 18.38 9.19 19.69-9.19 35.44-2.63 36.75 18.38-15.75 22.32-24.94 1.31-136.51 0-145.7-8.02-28.88-8.02-28.88zM641.39 261.7s-.99-6 5.58-.75 7.87 9.2 7.87 9.2 34.13 0 35.44 3.93-.78 37.45-.78 37.45l17.25 64.13s24.23 74.31 26.85 76.94-21-11.82-34.13-1.31-36.75 15.75-39.38 9.18-31.5-158.82-31.5-158.82 0-24.94 3.94-27.57 8.86-12.39 8.86-12.39z"/>
  <path fill="#ffb9b9" d="M711.29 385.65l-5.25 60.39-1.32 5.25 19.7 26.25s3.93-14.44 2.62-19.7 6.56-64.31 6.56-64.31z"/>
  <path fill="#2f2e41" d="M596.5 222.98s-6.37-16.58 2.88-22l2.55 7.33s23.28-14.03 29.33-10.84l-5.74 7.65s27.1 0 29.02 10.53l-9.56.32s10.2 6.7 10.52 17.53l-20.41 1.28 9.89 5.74s-37 5.1-45.92-9.57z"/>
  <path fill="#2f2e41" d="M590.98 223.64s7.35 14.7 17.15 11.02 0-17.15 0-17.15l-6.53-3.26z"/>
  <path d="M541 748.5h286v1H541z"/>
  <path fill="#fed36e" d="M687.66 276.7s7.87 1.32 13.12 10.5 31.5 69.58 32.82 72.2 1.31 38.07 1.31 38.07-18.37-10.5-26.25-3.94l-1.31-15.75-17.07-60.38-2.62-19.7z"/>
</svg>
