<svg xmlns="http://www.w3.org/2000/svg" style="isolation:isolate" viewBox="0 0 1161.52 725.58">
  <defs/>
  <path fill="#3F3D56" d="M565.38 39.7h-1.34v-2.36h1c.38 0 .68-.3.68-.67V24.56c0-.37-.3-.67-.67-.67h-1.01V17a14.65 14.65 0 00-14.66-14.66h-1.5V.68c0-.37-.3-.67-.66-.67H535.1c-.37 0-.67.3-.67.67v1.69H315.6A14.65 14.65 0 00300.94 17v311.84a14.65 14.65 0 0014.66 14.65h233.78a14.65 14.65 0 0014.66-14.65V53.15h1.34c.37 0 .67-.3.67-.67v-12.1c0-.38-.3-.68-.67-.68z"/>
  <path fill="#F2F2F2" d="M313.05 11.94h240.89v319.62H313.05z"/>
  <path fill="#3F3D56" d="M0 668h1161.52v2H0z"/>
  <path fill="#ECC31F" d="M271.25 568.25c2.25 76.8-42.63 104.93-98.94 106.58q-1.96.06-3.9.07-3.92.03-7.76-.13c-50.93-2.12-91.24-29.15-93.33-100.57-2.15-73.9 89.58-169.94 96.47-177.04l.4-.41s104.82 94.71 107.06 171.5z"/>
  <path fill="#3F3D56" d="M168.26 663.2l35.77-53.2-35.7 58.91.08 5.99q-3.92.03-7.76-.13l1.77-76.94-.04-.6.06-.11.17-7.27-39.17-56.88 39.12 51.44.14 1.53 1.34-58.13-33.83-58.97 33.93 48.76-.35-120.44v-.4.4l2.25 94.91 30.84-38.55-30.74 46.73.68 52 28.37-50.75-28.27 58.4.38 28.9 41.26-70.68-41.14 80.77.84 64.3zM867 106.33h-1.49v-40.8a23.62 23.62 0 00-23.62-23.62h-86.45a23.62 23.62 0 00-23.62 23.62V289.4a23.62 23.62 0 0023.62 23.62h86.45a23.62 23.62 0 0023.62-23.62V135.38H867v-29.05z"/>
  <path fill="#F2F2F2" d="M860.48 66.91v223.55c0 9.74-7.9 17.64-17.63 17.64h-86.88c-9.74 0-17.63-7.9-17.63-17.64V66.91c0-9.74 7.9-17.63 17.63-17.63h10.54a8.38 8.38 0 007.76 11.54h49.53a8.38 8.38 0 007.76-11.54h11.29c9.74 0 17.63 7.9 17.63 17.63z"/>
  <path fill="#CCC" d="M774.35 79h73.4v2.73h-73.4zM774.35 87.64h73.4v2.73h-73.4zM774.35 96.27h73.4V99h-73.4zM751.07 80.69h16.63v16.63h-16.63zM774.35 273h73.4v2.73h-73.4zM774.35 281.64h73.4v2.73h-73.4zM774.35 290.27h73.4V293h-73.4zM751.07 274.69h16.63v16.63h-16.63z"/>
  <path fill="#3F3D56" d="M839.9 380.57H631.2v-4.3h-94.65v4.3H326.96a14.12 14.12 0 00-14.12 14.12v285.8c0 7.8 6.33 14.12 14.12 14.12h512.95c7.8 0 14.12-6.32 14.12-14.12v-285.8a14.12 14.12 0 00-14.12-14.12z"/>
  <path fill="#F2F2F2" d="M331.77 405.52H835.1v283.93H331.77z"/>
  <circle cx="583" cy="392.61" r="5.16" fill="#ECC31F" vector-effect="non-scaling-stroke"/>
  <path fill="#3F3D56" d="M868.16 684.28h-49.12v-3.53a.7.7 0 00-.7-.7h-16.85a.7.7 0 00-.7.7v3.53h-10.52v-3.53a.7.7 0 00-.7-.7h-16.85a.7.7 0 00-.7.7v3.53H761.5v-3.53a.7.7 0 00-.7-.7h-16.85a.7.7 0 00-.7.7v3.53h-10.53v-3.53a.7.7 0 00-.7-.7h-16.84a.7.7 0 00-.7.7v3.53h-10.53v-3.53a.7.7 0 00-.7-.7h-16.84a.7.7 0 00-.7.7v3.53h-10.53v-3.53a.7.7 0 00-.7-.7h-16.84a.7.7 0 00-.7.7v3.53H646.4v-3.53a.7.7 0 00-.7-.7H513.78a.7.7 0 00-.7.7v3.53h-10.52v-3.53a.7.7 0 00-.7-.7H485a.7.7 0 00-.7.7v3.53H473.8v-3.53a.7.7 0 00-.7-.7h-16.85a.7.7 0 00-.7.7v3.53h-10.53v-3.53a.7.7 0 00-.7-.7h-16.84a.7.7 0 00-.7.7v3.53h-10.53v-3.53a.7.7 0 00-.7-.7H398.7a.7.7 0 00-.7.7v3.53h-10.53v-3.53a.7.7 0 00-.7-.7h-16.84a.7.7 0 00-.7.7v3.53H358.7v-3.53a.7.7 0 00-.7-.7h-16.84a.7.7 0 00-.7.7v3.53h-32.28c-9.3 0-16.85 7.54-16.85 16.85v7.61c0 9.3 7.55 16.84 16.85 16.84h559.98c9.3 0 16.84-7.54 16.84-16.84v-7.61a16.84 16.84 0 00-16.84-16.85z"/>
  <path fill="#E6E6E6" d="M534.79 427.76h141.24v5.25H534.79zM534.79 444.38h141.24v5.25H534.79zM534.79 461h141.24v5.25H534.79z"/>
  <path fill="#CCC" d="M534.79 427.76h141.24v5.25H534.79zM534.79 444.38h141.24v5.25H534.79zM534.79 461h141.24v5.25H534.79zM490 431h32v32h-32zM534.79 614.76h141.24v5.25H534.79zM534.79 631.38h141.24v5.25H534.79zM534.79 648h141.24v5.25H534.79zM490 618h32v32h-32z"/>
  <path fill="#3F3D56" d="M924.27 309.05a53.2 53.2 0 00-31.6-16.68l5.2-4.7-5.76-.29-7.11 6.43 6.43 7.12 5.75.29-4.3-4.77a49.36 49.36 0 01-7.88 98.1v4a53.36 53.36 0 0039.27-89.5zM233.73 309.05a53.2 53.2 0 0131.6-16.68l-5.2-4.7 5.76-.29 7.11 6.43-6.43 7.12-5.75.29 4.3-4.77a49.36 49.36 0 007.88 98.1v4a53.36 53.36 0 01-39.27-89.5z"/>
  <path fill="#CCC" d="M385.27 27.76h141.24v5.25H385.27zM385.27 44.38h141.24v5.25H385.27zM385.27 61h141.24v5.25H385.27zM340.49 31h32v32h-32zM384.79 276.76h141.24v5.25H384.79zM384.79 293.38h141.24v5.25H384.79zM384.79 310h141.24v5.25H384.79zM340 280h32v32h-32z"/>
  <circle cx="375.86" cy="174.03" r="23.86" fill="#ECC31F" vector-effect="non-scaling-stroke"/>
  <circle cx="439.5" cy="174.03" r="19.5" fill="#ECC31F" vector-effect="non-scaling-stroke"/>
  <circle cx="503.14" cy="174.03" r="11.86" fill="#ECC31F" vector-effect="non-scaling-stroke"/>
  <circle cx="768.98" cy="177.02" r="12.54" fill="#ECC31F" vector-effect="non-scaling-stroke"/>
  <circle cx="802.41" cy="177.02" r="9.97" fill="#ECC31F" vector-effect="non-scaling-stroke"/>
  <circle cx="835.84" cy="177.02" r="6.54" fill="#ECC31F" vector-effect="non-scaling-stroke"/>
  <circle cx="583" cy="538.03" r="56" fill="#ECC31F" vector-effect="non-scaling-stroke"/>
  <mask id="a">
    <path fill="#fff" d="M562.17 525.72l20.88 42.18 20.78-42.24-11.74.02v-17.52h-18.17v17.54l-11.75.02z"/>
  </mask>
  <path fill="#FFF" d="M562.17 525.72l20.88 42.18 20.78-42.24-11.74.02v-17.52h-18.17v17.54l-11.75.02z"/>
  <path fill="#FFF" stroke="#000" stroke-linecap="square" stroke-miterlimit="3" stroke-width="4" d="M562.17 525.72l20.88 42.18 20.78-42.24-11.74.02v-17.52h-18.17v17.54l-11.75.02h0z" mask="url(#a)" vector-effect="non-scaling-stroke"/>
</svg>
