<svg xmlns="http://www.w3.org/2000/svg" style="isolation:isolate" viewBox="0 0 425.2 425.2">
  <defs/>
  <clipPath id="a">
    <path fill="#FFF" d="M0 0v425.2h425.2V0H0z"/>
  </clipPath>
  <g clip-path="url(#a)">
    <path fill="#D6D6D6" d="M209.75 369.72c-1.85 0-3.74-.24-5.6-.74l-85.13-22.8a21.87 21.87 0 01-15.41-26.71l56.02-209.09a21.88 21.88 0 0117.48-15.85 21.6 21.6 0 00-3.2 6.85l-.78 2.9-.03.12-44.34 165.48-10.88 40.59-.01.06-.8 2.96a21.87 21.87 0 0015.42 26.7l85.12 22.8a21.67 21.67 0 007.21.69 21.96 21.96 0 01-15.07 6.04z"/>
    <path fill="#CEBCAF" fill-rule="evenodd" d="M199.8 88.99l85.12 22.8a21.87 21.87 0 0115.41 26.7l-56.02 209.1a21.87 21.87 0 01-26.7 15.4l-85.12-22.8a21.87 21.87 0 01-15.42-26.7L173.1 104.4A21.87 21.87 0 01199.8 89z"/>
    <path fill="#FFF" fill-rule="evenodd" d="M200.61 85.97l85.12 22.8a21.87 21.87 0 0115.41 26.7l-56.02 209.1a21.87 21.87 0 01-26.7 15.4l-85.12-22.8a21.87 21.87 0 01-15.42-26.7l56.03-209.09a21.87 21.87 0 0126.7-15.41z"/>
    <path fill="#FED36E" fill-rule="evenodd" d="M126.83 300.76l115.4 30.92 52.52-196.04-115.39-30.91-52.53 196.03z"/>
    <path fill="#E4E4E4" fill-rule="evenodd" d="M173.34 323.74l17.12 4.59a6.4 6.4 0 014.52 7.82 6.4 6.4 0 01-7.83 4.52l-17.12-4.59a6.4 6.4 0 01-4.52-7.82 6.4 6.4 0 017.83-4.52z"/>
    <path fill="#CACACA" fill-rule="evenodd" d="M187.08 340.93l-17.12-4.58a6.67 6.67 0 013.45-12.87l17.12 4.59a6.67 6.67 0 01-3.45 12.86zM173.27 324a6.12 6.12 0 00-3.17 11.82l17.12 4.59a6.12 6.12 0 003.17-11.82L173.27 324z"/>
    <path fill="#E4E4E4" fill-rule="evenodd" d="M228.72 104.72l23.29 6.24a3.2 3.2 0 012.26 3.92 3.2 3.2 0 01-3.92 2.25l-23.29-6.24a3.2 3.2 0 01-2.26-3.91 3.2 3.2 0 013.92-2.26z"/>
    <path fill="#CACACA" fill-rule="evenodd" d="M250.28 117.4L227 111.14a3.47 3.47 0 011.8-6.7l23.29 6.25a3.47 3.47 0 01-1.8 6.7zm-21.63-12.42a2.93 2.93 0 00-1.52 5.65l23.3 6.24a2.93 2.93 0 001.5-5.65l-23.28-6.24z"/>
    <path fill="#FFF" d="M158.22 93.87a3.83 3.83 0 01-3.63-5.04 35.69 35.69 0 0116.62-21.5l.23-.13a35.77 35.77 0 0126.71-3.52 3.83 3.83 0 01-.76 7.57c-.32 0-.65-.04-.98-.13a28.13 28.13 0 00-21.2 2.7l-.17.1a28.08 28.08 0 00-13.08 16.94 3.83 3.83 0 01-3.74 3.01zm-16.65-5.99a3.83 3.83 0 01-3.69-4.8 51.8 51.8 0 0124.21-31.55 51.93 51.93 0 0139.43-5.2 3.82 3.82 0 01-1.97 7.38 44.27 44.27 0 00-33.63 4.42 44.2 44.2 0 00-20.66 26.92c-.45 1.7-2 2.83-3.69 2.83zM234.37 407.74c-4.45 0-8.97-.57-13.47-1.78a3.82 3.82 0 011.97-7.38 44.25 44.25 0 0033.63-4.42 44.19 44.19 0 0020.65-26.92 3.82 3.82 0 017.39 1.97 51.8 51.8 0 01-24.21 31.55 51.93 51.93 0 01-25.96 6.98zm-1.06-17.96c-2.99 0-6.02-.38-9.05-1.17a3.83 3.83 0 01.77-7.57c.32 0 .65.04.98.13a28.12 28.12 0 0021.2-2.7l.17-.1a28.08 28.08 0 0013.08-16.94 3.83 3.83 0 017.56.81c0 .43-.07.84-.2 1.22a35.68 35.68 0 01-16.61 21.5l-.24.13a35.77 35.77 0 01-17.66 4.69z"/>
    <path fill-opacity=".5" d="M256.65 301.54l14.2-53a72.1 72.1 0 017.2 6.22c20.14 19.93 13.96 40.42-13.81 45.76-2.45.47-5 .8-7.6 1.02z"/>
    <path fill="#A5968C" d="M256.65 301.54l14.2-53-14.2 53z"/>
    <path fill="#CCC" d="M250.23 301.8l15.27-57a86.99 86.99 0 015.35 3.74l-14.2 53c-2.1.17-4.25.26-6.42.26z"/>
    <path d="M199.84 306.17c-4.02 0-8.72-2.49-9.2-5.18l-3.36-18.85a74.8 74.8 0 01-9.72-8.05c-20.14-19.93-13.96-40.42 13.82-45.76a75.72 75.72 0 0114.3-1.28c20.06 0 42.81 6.77 59.82 17.75l-15.27 57h-.28c-5.83 0-11.9-.57-17.98-1.65l-30.55 5.88c-.5.1-1.04.14-1.58.14z"/>
    <path fill="#FFF" fill-rule="evenodd" d="M252.96 176.3a57.93 57.93 0 0170.98 40.9 57.77 57.77 0 01-41 70.8 57.78 57.78 0 01-32.04-.56l-34.04 9.1a6.36 6.36 0 01-7.79-7.8l7.83-29.17a57.77 57.77 0 0136.06-83.28z"/>
    <path fill="#FED36E" fill-rule="evenodd" d="M262.77 240.02a253.3 253.3 0 00-.99-11.35l-3.15-20.64a34.1 34.1 0 01-.3-4.03 9.7 9.7 0 011.3-4.83 9.64 9.64 0 013.56-3.58 9.02 9.02 0 019.47.02 9.78 9.78 0 014.94 8.5c0 1.32-.17 3-.51 5.08a434.49 434.49 0 00-3.36 22.54c-.26 2.55-.47 5.3-.6 8.29h-.02v.23a5.16 5.16 0 01-5.16 5.14 5.15 5.15 0 01-5.13-5.14v-.23h-.05zm5.18 11.22c2.66 0 4.9.93 6.74 2.75a8.98 8.98 0 012.81 6.65c0 2.6-.93 4.8-2.8 6.67a9.26 9.26 0 01-6.75 2.75c-2.65 0-4.9-.93-6.74-2.75a9.15 9.15 0 01-2.78-6.67c0-2.6.93-4.8 2.78-6.65a9.26 9.26 0 016.74-2.75z"/>
    <path fill="#FFF" fill-rule="evenodd" d="M344 210.73a2.87 2.87 0 01-4.06-4.06l16.39-16.39a2.87 2.87 0 014.06 4.06l-16.4 16.39zm3.4 16.66a2.86 2.86 0 11-1.49-5.54l26.3-7.04a2.87 2.87 0 011.48 5.53l-26.3 7.05zm-1.49 15.09a2.87 2.87 0 011.48-5.54l26.3 7.04a2.87 2.87 0 01-1.48 5.54l-26.3-7.05zm-5.97 15.17a2.87 2.87 0 014.05-4.05l16.4 16.39a2.87 2.87 0 11-4.06 4.06l-16.4-16.4z"/>
  </g>
</svg>
