<svg xmlns="http://www.w3.org/2000/svg" data-name="Layer 1" viewBox="0 0 888.08 534.97">
  <defs/>
  <path fill="#e6e6e6" d="M58.23 391.7l-5.33-21.03a273.13 273.13 0 00-28.98-10.4l-.67 9.78-2.73-10.77C8.31 355.78 0 354.25 0 354.25s11.22 42.68 34.76 75.3l27.43 4.82-21.31 3.07a110.5 110.5 0 009.53 10.1c34.24 31.78 72.38 46.36 85.18 32.57s-4.57-50.74-38.81-82.52c-10.62-9.86-23.95-17.76-37.3-23.99z"/>
  <path fill="#e6e6e6" d="M108.96 368.86l6.3-20.77a273.13 273.13 0 00-19.43-23.87l-5.63 8.02 3.23-10.63c-8.65-9.3-14.97-14.91-14.97-14.91s-12.45 42.33-9.17 82.42l21 18.3-19.84-8.38a110.5 110.5 0 002.94 13.57c12.89 44.91 38 77.1 56.09 71.92s22.31-45.8 9.43-90.71c-4-13.92-11.32-27.58-19.53-39.81z"/>
  <path fill="#3f3d56" d="M.08 487.65h888v2.24H.08z"/>
  <path fill="#2f2e41" d="M140.38 255.61l-8.4 100.97a126.71 126.71 0 01-7.43 32.66s-2.97 5.94-2.97 11.88v75.72s-5.93 0-4.45 5.94 2.97 16.34 2.97 16.34h22.27s-1.48-4.46 2.97-5.94 0-13.37 0-13.37l23.76-89.08 35.63-74.24s20.79 66.81 25.24 74.24c0 0 16.33 83.15 19.3 90.57s4.46 7.42 2.97 10.4-1.48 5.93 0 7.42 29.7 0 29.7 0l-7.42-105.42-13.37-126.2-68.3-20.8z"/>
  <path fill="#2f2e41" d="M136.43 487.24s-7.42-26.73-19.3-5.94-11.88 28.21-11.88 28.21-19.3 28.21 7.43 25.24 20.78-16.33 20.78-16.33 10.4-5.94 10.4-10.4-7.43-20.78-7.43-20.78zM256.7 484.27s7.42-26.73 19.3-5.94 11.88 28.21 11.88 28.21 19.3 28.21-7.43 25.24-20.78-16.33-20.78-16.33-10.4-5.94-10.4-10.4 7.43-20.78 7.43-20.78z"/>
  <path fill="#a0616a" d="M186.91 55.17s2.97 19.3-5.93 23.76 19.3 20.78 26.72 20.78 20.79-14.84 20.79-14.84-7.43-22.28-5.94-26.73z"/>
  <circle cx="203.25" cy="38.84" r="31.18" fill="#a0616a"/>
  <path fill="#cfcce0" d="M264.12 102.68L227 80.2s-21.11 23.98-43.96-2.75l-39.18 10.4 5.94 100.96s-8.91 40.09-5.94 47.51-7.43 10.4-4.46 11.88 0 11.88 0 11.88 57.9 29.7 121.75 7.42l-5.94-19.3a15.58 15.58 0 00-2.97-14.85s5.94-8.9-1.48-16.33c0 0 2.97-13.36-4.46-19.3l-1.48-20.79 4.45-10.4z"/>
  <path fill="#2f2e41" d="M187.29 24.36s-3.72 8.04 11.15 4.83c0 0 5.58 3.21 5.58-1.61 0 0 7.43 8.04 9.3 3.22s5.57 1.6 5.57 1.6l3.71-8.04 3.72 4.83h13.01S243.05-3 198.44.23s-22.66 54.2-22.66 54.2.36-9.15 4.07-4.33 7.44-25.74 7.44-25.74z"/>
  <path fill="#a0616a" d="M277.49 162.07l1.48 31.18s5.94 57.91-5.94 83.15v13.36s-2.97 34.15-17.82 32.67 4.46-49 4.46-49l-2.97-65.33-2.97-37.12z"/>
  <path fill="#cfcce0" d="M247.79 104.17l14.81-2.4a72.31 72.31 0 0120.82 38.03c4.46 23.76 5.94 28.21 5.94 28.21l-35.63 8.91-19.3-37.12z"/>
  <path fill="#fff" d="M184.02 87.22h234.31v116.39H184.02z"/>
  <path fill="#ecc31f" d="M209.6 94.22c-6.02-3.62-13.28-3.34-16.04-3.06 1.06 2.56 4.2 9.1 10.23 12.73 6.03 3.63 13.28 3.34 16.04 3.07-1.05-2.57-4.2-9.11-10.23-12.74zM237.89 166.06h-37.62a8.47 8.47 0 100 16.93h37.62a8.47 8.47 0 100-16.93z"/>
  <path fill="#ecc31f" d="M408.26 76.7H197.32a18.69 18.69 0 00-18.69 18.69v102.77a18.69 18.69 0 0018.69 18.69h210.94a18.69 18.69 0 0018.69-18.69V95.4a18.69 18.69 0 00-18.69-18.69zM192.1 89.45c.42-.08 10.3-1.76 18.47 3.16 8.18 4.92 11.32 14.44 11.45 14.84l.33 1.03-1.06.18a28.17 28.17 0 01-4.58.34 27.26 27.26 0 01-13.9-3.5c-8.17-4.92-11.31-14.44-11.44-14.84l-.33-1.03zm45.79 95.42h-37.62a10.35 10.35 0 010-20.7h37.62a10.35 10.35 0 110 20.7zm171.19-1.88a11.32 11.32 0 01-11.3 11.28h-28.2a11.32 11.32 0 01-11.3-11.28v-16.93a11.32 11.32 0 0111.3-11.3h28.2a11.32 11.32 0 0111.3 11.3z"/>
  <path fill="#ecc31f" d="M378.5 179.7h-12.22a3.3 3.3 0 000 6.58h12.23a3.3 3.3 0 000-6.59zm0 4.7h-12.22a1.41 1.41 0 110-2.82h12.23a1.41 1.41 0 010 2.82zM401.08 179.7h-12.23a3.3 3.3 0 000 6.58h12.23a3.3 3.3 0 000-6.59zm0 4.7h-12.23a1.41 1.41 0 110-2.82h12.23a1.41 1.41 0 010 2.82zM378.5 171.23h-12.22a3.3 3.3 0 000 6.58h12.23a3.3 3.3 0 000-6.58zm0 4.7h-12.22a1.41 1.41 0 110-2.82h12.23a1.41 1.41 0 110 2.82zM401.08 171.23h-12.23a3.3 3.3 0 000 6.58h12.23a3.3 3.3 0 000-6.58zm0 4.7h-12.23a1.41 1.41 0 110-2.82h12.23a1.41 1.41 0 110 2.82zM378.5 162.76h-12.22a3.3 3.3 0 000 6.59h12.23a3.3 3.3 0 000-6.59zm0 4.7h-12.22a1.41 1.41 0 110-2.82h12.23a1.41 1.41 0 010 2.83zM401.08 162.76h-12.23a3.3 3.3 0 000 6.59h12.23a3.3 3.3 0 000-6.59zm0 4.7h-12.23a1.41 1.41 0 110-2.82h12.23a1.41 1.41 0 010 2.83z"/>
  <path fill="#a0616a" d="M121.58 144.26s-13.36 56.42 2.97 56.42 54.94-63.85 54.94-63.85 40.09-20.78 23.76-28.2-37.12 11.87-37.12 11.87l-23.99 33.3-1.25-16.97z"/>
  <path fill="#cfcce0" d="M152.76 96.74l-8.9-8.9s-17.82 10.39-19.3 20.78-8.91 43.06-8.91 43.06l27.46 2.23 8.91-13.37z"/>
  <path fill="#ecc31f" d="M574.78 75.62c-1.12-3.3-15.14-14.53-6.55-16.41l7.05 9.4 32.4-32.41 3.27 3.26zM574.78 185.82c-1.12-3.3-15.14-14.53-6.55-16.42l7.05 9.4 32.4-32.4 3.27 3.25zM574.78 297.58c-1.12-3.3-15.14-14.52-6.55-16.41l7.05 9.4 32.4-32.4 3.27 3.25z"/>
  <circle cx="672.94" cy="62.22" r="10" fill="#3f3d56"/>
  <path fill="#3f3d56" d="M710.44 61.22h161v2h-161z"/>
  <circle cx="672.94" cy="172.42" r="10" fill="#3f3d56"/>
  <path fill="#3f3d56" d="M710.44 171.42h161v2h-161z"/>
  <circle cx="672.94" cy="284.19" r="10" fill="#3f3d56"/>
  <path fill="#3f3d56" d="M710.44 283.19h161v2h-161zM600.04 312.49h-50v-51h34v2h-32v47h46v-23h2v25zM600.04 200.49h-50v-51h34v2h-32v47h46v-23h2v25zM600.04 86.48h-50v-51h34v2h-32v47h46v-23h2v25z"/>
</svg>
