<svg xmlns="http://www.w3.org/2000/svg" style="isolation:isolate" viewBox="71 10.12 595 438.99">
  <defs/>
  <path fill="#FEFEFE" d="M659.07 252.61L384.2 93.91c-9.2-5.3-24.06-5.3-33.2 0L77.9 252.61c-9.13 5.31-9.08 13.93.11 19.24l274.88 158.7c9.2 5.3 24.07 5.3 33.2 0l273.1-158.7c9.14-5.32 9.09-13.93-.1-19.24z"/>
  <path fill="#DEE3EF" d="M659.18 271.84l-273.1 158.7c-9.13 5.32-24 5.32-33.2.01L78 271.85c-4.63-2.68-6.94-6.18-6.93-9.69L71 276.74c0 3.5 2.3 7.01 6.93 9.68L352.8 445.13c9.2 5.3 24.06 5.3 33.2 0l273.1-158.7c4.53-2.65 6.8-6.1 6.82-9.55l.07-14.58c0 3.45-2.28 6.9-6.82 9.54z"/>
  <path fill="#FEFEFE" d="M569.6 133.9l-14.23-8.27a5.05 5.05 0 00-4.58 0l-20 11.54c-1.27.74-1.28 1.93-.02 2.66L545 148.1c1.26.73 3.31.73 4.59 0l19.99-11.55c1.27-.73 1.27-1.92.02-2.65z"/>
  <path fill="#CDD8E2" d="M554.7 126.78c-.4-.23-1-.37-1.62-.37-.63 0-1.22.14-1.63.37l-19 10.97a.84.84 0 000 1.45l13.22 7.74c.4.24.99.37 1.61.37a3.4 3.4 0 001.64-.37l19.4-11.01a.72.72 0 000-1.25c-3.38-1.99-13.62-7.9-13.62-7.9z"/>
  <path fill="#CDD8E2" d="M569.58 136.55l-19.99 11.54a5.06 5.06 0 01-4.6 0l-14.22-8.26c-.62-.37-.94-.84-.94-1.32l.04 1.72c0 .48.31.95.94 1.32l14.23 8.27c1.26.73 3.3.73 4.59-.01l19.99-11.54c.64-.37.95-.85.95-1.34l-.03-1.72c0 .49-.32.97-.96 1.34z"/>
  <path fill="#334359" d="M463.9 187.6l30.7 17.72 30.5-17.72-30.7-17.72-30.5 17.72z"/>
  <path fill="#2F3D50" d="M494.5 241.09l30.5-17.73.1-35.76-30.5 17.72-.1 35.77z"/>
  <path fill="#334359" d="M463.8 223.36l30.7 17.72.1-35.76-30.7-17.72-.1 35.76z"/>
  <path fill="#2F3E51" d="M542.3 122.2c-5.97 2.7-10.98 3.12-14.9 1.27-5.02-2.37-6.54-7.75-6.56-7.8a.77.77 0 00-1.5.4c.07.24 1.7 6.1 7.37 8.8a13.9 13.9 0 006 1.28c3.07 0 6.49-.84 10.23-2.53a.78.78 0 00-.64-1.41zM500.34 101.62a1.04 1.04 0 00-1.43.3c-3.43 5.23-6.86 7.93-9.88 7.93-3.19-.05-5.13-3.16-5.15-3.2a1.04 1.04 0 00-1.77 1.08c.1.17 2.53 4.1 6.87 4.18h.13c3.8 0 7.67-2.98 11.53-8.86.31-.48.18-1.12-.3-1.43z"/>
  <path fill="#2F3E51" d="M499.73 101.45c-.58.03-1.02.51-.99 1.08.32 6.67-1 11.07-3.94 13.08-3.96 2.73-9.75.22-9.8.2a1.03 1.03 0 10-.85 1.89c.18.08 2.9 1.26 6.11 1.26 1.86 0 3.9-.4 5.7-1.63 3.57-2.45 5.2-7.46 4.85-14.9a1.03 1.03 0 00-1.08-.98z"/>
  <path fill="#293341" d="M513.5 197.31c-11.45 6.65-30.04 6.65-41.56 0-5.79-3.34-8.68-7.73-8.67-12.12l-.04 5.6c-.01 4.38 2.88 8.77 8.68 12.11 11.51 6.65 30.1 6.65 41.54 0 5.69-3.3 8.53-7.62 8.54-11.94l.04-5.6c-.01 4.33-2.86 8.65-8.54 11.95z"/>
  <path fill="#2F3E51" d="M513.36 173.25c-11.52-6.65-30.1-6.65-41.55 0-11.44 6.65-11.38 17.41.13 24.06 11.52 6.65 30.1 6.65 41.55 0 11.44-6.65 11.38-17.41-.13-24.06z"/>
  <path fill="#FED36E" d="M500.28 166.34c-.38-.22-.77-.43-1.16-.63-12.2-6.2-32.03 4.99-33.07 5.58l-.02 6.09 40.46 23.36 4.9-10.3c.2-.33.38-.69.55-1.13 2.24-6.08-1.93-17.35-11.66-22.97z"/>
  <path fill="#E6B244" d="M512.77 160c-.38-.22-.77-.43-1.17-.63-12.2-6.2-29.94 2.86-30.98 3.45l-14.57 8.47c1.04-.6 20.86-11.79 33.07-5.58.4.2.78.41 1.16.63 9.73 5.62 13.9 16.89 11.66 22.97-.17.44-.34.8-.54 1.14l-4.91 10.29 12.48-6.34 4.9-10.29c.2-.34.38-.7.55-1.14 2.25-6.08-1.93-17.35-11.65-22.97z"/>
  <path fill="#FEC64C" d="M456.58 83.47l5.88-.47 9.47-5.5-5.88.46-9.47 5.5z"/>
  <path fill="#FED36E" d="M462.46 83l-5.88.47-.03 11.8 25.83 14.9.07-23.58-16.3-9.4-3.69 5.8z"/>
  <path fill="#FEC64C" d="M482.38 110.18l12.85-7.1.07-23.58-12.85 7.1-.07 23.58zM466.15 77.18l16.3 9.41 12.85-7.09-16.3-9.4-12.85 7.08z"/>
  <path fill="#FED36E" d="M505.82 175.74c-5.47-10.72-9.53-20.61-13.92-32.3l-5.01-13.32c-3.03-8.05-5.7-16.17-7.38-24.09a26.68 26.68 0 00-2.02-5.86c-2.31-4.87-5.95-8.92-9.65-11.06a11.55 11.55 0 00-4.64-1.6c-6.79-.65-9.45 7.02-6 16.21.38 1 .81 1.97 1.29 2.9 3.87 7.6 7.52 15.27 10.45 23.07l8.11 21.57a254.05 254.05 0 017.98 26.08 28.26 28.26 0 002.23 5.75c2.3 4.47 5.7 8.16 9.18 10.17a12.1 12.1 0 003.96 1.5c7.31 1.26 10.28-6.61 6.7-16.1-.37-1-.8-1.99-1.28-2.92z"/>
  <path fill="#FEC64C" d="M510.57 173.03c-5.4-10.57-9.84-21.43-13.93-32.29l-5-13.32c-3.03-8.06-5.7-16.17-7.38-24.1a26.88 26.88 0 00-2.02-5.86c-2.31-4.86-5.95-8.91-9.66-11.05a11.58 11.58 0 00-4.63-1.6 6.54 6.54 0 00-3.97.77l-4.75 2.7a6.54 6.54 0 013.97-.78c1.5.14 3.07.7 4.64 1.61 3.7 2.14 7.34 6.2 9.65 11.06.96 2.02 1.63 4 2.02 5.86 1.68 7.92 4.35 16.04 7.38 24.1l5 13.31c4.4 11.69 8.46 21.58 13.93 32.3.48.93.91 1.91 1.29 2.91 2.66 7.1 1.68 13.28-2.03 15.44l4.75-2.7c3.71-2.16 4.7-8.35 2.03-15.44-.38-1-.81-1.98-1.3-2.92z"/>
  <path fill="#2F3E51" d="M489.6 83.7c-3.67 2.11-6.62 7.23-6.6 11.43 0 2.09.74 3.56 1.93 4.25l1.58.92c-1.2-.7-1.93-2.16-1.94-4.25 0-4.2 2.94-9.31 6.6-11.43 1.84-1.06 3.5-1.16 4.71-.46l-1.58-.92c-1.2-.7-2.87-.6-4.7.46z"/>
  <path fill="#2F3E51" d="M491.17 84.62c-3.66 2.11-6.6 7.23-6.6 11.43.02 4.2 2.99 5.9 6.64 3.79 3.66-2.11 6.61-7.23 6.6-11.43-.01-4.2-2.99-5.9-6.64-3.79zM466.05 94.62c-3.78-2.19-6.85-.43-6.86 3.91-.02 4.35 3.04 9.64 6.82 11.82 3.77 2.18 6.85.43 6.86-3.91.02-4.35-3.04-9.64-6.82-11.82zM495.9 171.1c-3.78-2.18-6.85-.42-6.86 3.92-.02 4.35 3.03 9.63 6.82 11.82 3.77 2.18 6.85.43 6.86-3.91.02-4.35-3.04-9.64-6.82-11.82z"/>
  <path fill="#FED36E" d="M491.25 87.27c-2.74 1.59-4.96 5.44-4.95 8.59 0 1.57.56 2.67 1.45 3.2l39.64 20.6c-.9-.52 6.14-12.66 7.05-12.13l-39.65-20.6c-.9-.53-2.15-.46-3.54.34z"/>
  <path fill="#FEC64C" d="M530.9 107.88c-2.75 1.58-4.97 5.43-4.96 8.58 0 3.16 2.24 4.44 4.99 2.85 2.75-1.59 4.97-5.43 4.96-8.6-.01-3.15-2.25-4.42-5-2.83z"/>
  <path fill="#778DAB" d="M531.29 110.9a4.99 4.99 0 00-2.26 3.92c0 .72.25 1.22.66 1.46l6.86 3.72c-.4-.24 2.8-5.78 3.22-5.54l-6.86-3.71c-.42-.24-.99-.21-1.62.15z"/>
  <path fill="#CAD8E6" d="M538.15 114.62a4.99 4.99 0 00-2.26 3.92c0 1.44 1.02 2.02 2.27 1.3a4.99 4.99 0 002.27-3.92c0-1.44-1.03-2.02-2.28-1.3z"/>
  <path fill="#778DAB" d="M538.87 116.13a2.72 2.72 0 00-1.24 2.14c0 .4.14.67.36.8l7.06 3.62c-.22-.13 1.53-3.15 1.76-3.02l-7.06-3.62c-.23-.13-.54-.12-.88.08z"/>
  <path fill="#CAD8E6" d="M545.93 119.75a2.73 2.73 0 00-1.24 2.14c0 .8.56 1.1 1.24.71a2.72 2.72 0 001.24-2.14c0-.78-.56-1.1-1.24-.7z"/>
  <path fill="#2F3E51" d="M534.71 131.59c-.89.51-2.33.5-3.22 0-.45-.27-.68-.61-.68-.95v3.71c-.01.34.22.69.67.95.9.51 2.33.52 3.22 0 .44-.25.66-.59.66-.93l.01-3.71c0 .34-.22.67-.66.93z"/>
  <path fill="#2F3E51" d="M534.7 129.72a3.56 3.56 0 00-3.23 0c-.89.51-.87 1.35.02 1.86.9.52 2.33.52 3.22 0 .89-.5.88-1.35-.01-1.86zM540.22 134.91c-.89.52-2.33.51-3.22 0-.45-.26-.68-.6-.68-.95l-.01 3.72c0 .34.23.68.68.94.89.52 2.33.52 3.22 0 .44-.25.66-.59.66-.92l.01-3.72c0 .34-.22.67-.66.93z"/>
  <path fill="#2F3E51" d="M540.2 133.04a3.57 3.57 0 00-3.22 0c-.89.52-.88 1.35.02 1.87.9.51 2.33.52 3.22 0 .88-.51.88-1.35-.01-1.87zM545.73 138.24c-.89.51-2.33.5-3.22-.01-.46-.26-.68-.6-.68-.94l-.01 3.71c0 .34.22.69.68.95.89.51 2.33.52 3.22 0 .44-.25.66-.59.66-.93v-3.71c0 .33-.21.67-.65.93z"/>
  <path fill="#2F3E51" d="M545.72 136.36a3.58 3.58 0 00-3.23 0c-.89.52-.88 1.35.02 1.87.89.52 2.33.52 3.22 0 .88-.51.88-1.35-.01-1.87zM564.88 131.58c-.89.52-2.33.52-3.21 0-.44-.25-.67-.59-.67-.92l.01 3.72c0 .33.23.67.66.92.9.52 2.33.51 3.23 0 .45-.26.67-.6.67-.95v-3.71c0 .34-.23.68-.69.94z"/>
  <path fill="#2F3E51" d="M564.9 129.72a3.56 3.56 0 00-3.23 0c-.89.51-.9 1.35 0 1.87.88.51 2.32.5 3.22 0 .89-.52.9-1.36.01-1.87zM559.38 134.9c-.9.52-2.34.53-3.22.01-.44-.26-.66-.59-.66-.93v3.72c0 .33.23.67.67.93.88.51 2.32.5 3.22 0 .45-.27.68-.61.68-.95l-.02-3.72c0 .34-.22.69-.67.94z"/>
  <path fill="#2F3E51" d="M559.4 133.04a3.57 3.57 0 00-3.23 0c-.9.52-.9 1.36-.01 1.87.88.52 2.32.51 3.22 0 .89-.52.9-1.35.02-1.87zM553.87 138.23c-.9.52-2.34.52-3.22 0-.44-.25-.66-.59-.66-.92v3.71c0 .34.23.68.67.93.89.52 2.33.51 3.22 0 .45-.26.68-.6.68-.95l-.01-3.72c0 .35-.23.69-.68.95z"/>
  <path fill="#2F3E51" d="M553.89 136.36a3.57 3.57 0 00-3.23 0c-.9.52-.9 1.36-.01 1.88.88.51 2.33.5 3.22-.01.9-.51.9-1.35.02-1.87z"/>
  <path fill="#778DAB" d="M528.25 126.44l20.13 11.62 19.99-11.62-20.12-11.62-20 11.62z"/>
  <path fill="#A8BFD6" d="M548.32 141.98l20-11.62.05-3.92-20 11.62-.05 3.92z"/>
  <path fill="#CAD8E6" d="M528.2 130.36l20.12 11.62.06-3.92-20.13-11.62-.05 3.92z"/>
  <path fill="#778DAB" d="M538.94 116.87l9.35 5.4 9.29-5.4-9.35-5.4-9.3 5.4z"/>
  <path fill="#A8BFD6" d="M548.26 131.42l9.3-5.4.02-9.15-9.3 5.4-.02 9.15z"/>
  <path fill="#CAD8E6" d="M538.91 126.02l9.35 5.4.03-9.15-9.35-5.4-.03 9.15z"/>
  <path fill="#334359" d="M391.93 136.05l30.5 17.72 30.7-17.72-30.5-17.73-30.7 17.73z"/>
  <path fill="#334359" d="M391.93 136.05l.1 35.76 30.5 17.72-.1-35.76-30.5-17.72z"/>
  <path fill="#2F3D50" d="M422.43 153.77l.1 35.76 30.7-17.72-.1-35.76-30.7 17.72z"/>
  <path fill="#2F3E51" d="M363.86 58.98a.78.78 0 00-.9.64c0 .05-.98 5.57-5.73 8.42-3.73 2.23-8.76 2.3-14.97.22a.77.77 0 00-.5 1.47c3.9 1.31 7.39 1.81 10.44 1.5 2.17-.21 4.12-.84 5.84-1.87 5.37-3.23 6.41-9.23 6.46-9.49a.78.78 0 00-.64-.89zM403.73 46.53a1.04 1.04 0 00-1.38.49c-.02.03-1.64 3.32-4.8 3.68-3.01.3-6.7-2.04-10.63-6.9a1.04 1.04 0 00-1.6 1.3c4.41 5.46 8.57 8.05 12.35 7.67l.13-.02c4.3-.5 6.33-4.66 6.42-4.84.24-.52.02-1.13-.5-1.38z"/>
  <path fill="#2F3E51" d="M402.15 56.23c-.06.04-5.57 3.1-9.78.79-3.12-1.72-4.88-5.97-5.22-12.63-.03-.57-.52-1-1.09-.98-.56.01-1 .52-.98 1.09.39 7.43 2.5 12.25 6.3 14.33a9.95 9.95 0 005.84 1.06c3.2-.32 5.78-1.76 5.95-1.86a1.03 1.03 0 00-1.02-1.8z"/>
  <path fill="#293341" d="M442.53 141.08c-11.51 6.65-30.1 6.64-41.54 0-5.69-3.3-8.53-7.63-8.55-11.95l.04 5.59c.01 4.33 2.86 8.65 8.54 11.95 11.44 6.65 30.03 6.65 41.55 0 5.8-3.34 8.69-7.73 8.67-12.12l-.03-5.59c0 4.38-2.88 8.77-8.68 12.12z"/>
  <path fill="#2F3E51" d="M442.67 117.01c-11.44-6.64-30.03-6.65-41.55 0-11.51 6.65-11.57 17.42-.13 24.07 11.44 6.64 30.03 6.65 41.54 0 11.52-6.65 11.58-17.42.14-24.07z"/>
  <path fill="#E6B244" d="M415.36 109.47c-.4.2-.79.42-1.17.63-9.72 5.62-13.9 16.9-11.65 22.97.17.45.34.8.54 1.15l4.9 10.28 40.47-23.36-.02-6.09c-1.04-.59-20.86-11.78-33.07-5.58z"/>
  <path fill="#FED36E" d="M402.88 103.14c-.4.2-.79.4-1.17.63-9.72 5.61-13.9 16.89-11.65 22.97.17.44.34.8.54 1.14l4.9 10.28L408 144.5l-4.91-10.28c-.2-.34-.37-.7-.54-1.15-2.25-6.08 1.93-17.35 11.65-22.97l1.17-.63c12.2-6.2 32.03 5 33.07 5.58l-14.57-8.47c-1.05-.58-18.78-9.65-30.98-3.44z"/>
  <path fill="#FEC64C" d="M407.84 16.78l9.97 4.54 5.9-.11-9.97-4.54-5.9.11z"/>
  <path fill="#FEC64C" d="M417.81 21.32l-4.25-5.42-15.28 10.98 2.41 23.46 24.22-17.4-1.2-11.73-5.9.1z"/>
  <path fill="#FEC64C" d="M384.8 21.1l2.4 23.46 13.5 5.78-2.42-23.46-13.49-5.78z"/>
  <path fill="#FED36E" d="M384.8 21.1l13.48 5.78 15.28-10.98-13.49-5.78L384.8 21.1z"/>
  <path fill="#FEC64C" d="M417.12 23.37a11.6 11.6 0 00-3.8 3.1c-2.75 3.27-4.77 8.33-5.28 13.69-.2 2.22-.16 4.31.1 6.2 1.15 8.01 1.42 16.55 1.33 25.16l-.14 14.23c-.12 12.48-.55 23.17-2.01 35.11a28.2 28.2 0 00-.21 3.18c-.1 10.15 5.38 16.52 11.81 12.84 1.14-.65 2.22-1.6 3.2-2.77 2.58-3.08 4.52-7.71 5.15-12.7.28-2.2.3-4.27.13-6.17-.87-8.9-1.53-17.92-1.44-27.23l.23-23.05c.08-8.32.88-16.78 1.91-25.24a29 29 0 00.22-3.17c.1-9.81-5.03-16.11-11.2-13.18z"/>
  <path fill="#FED36E" d="M411.73 22.46a11.57 11.57 0 00-3.8 3.1c-2.75 3.27-4.77 8.32-5.28 13.68a26.8 26.8 0 00.1 6.2c1.15 8.02 1.42 16.56 1.33 25.17l-.13 14.23c-.12 11.6-.57 23.32-2.02 35.1-.13 1.05-.2 2.12-.21 3.19-.08 7.58 2.96 13.05 7.19 13.8l5.38.92c-4.22-.76-7.26-6.23-7.18-13.8 0-1.08.08-2.14.2-3.19 1.47-11.94 1.9-22.63 2.02-35.11l.14-14.23c.1-8.6-.19-17.15-1.32-25.16a26.68 26.68 0 01-.1-6.2c.5-5.36 2.52-10.42 5.27-13.7a11.6 11.6 0 013.8-3.1 6.54 6.54 0 014-.62l-5.38-.92a6.53 6.53 0 00-4 .64z"/>
  <path fill="#2F3E51" d="M390.89 24.72c-1.94-.88-3.6-.8-4.73 0l-1.48 1.08c1.13-.82 2.8-.89 4.73-.01 3.85 1.74 7.3 6.53 7.7 10.71.2 2.08-.39 3.62-1.5 4.42l1.48-1.07c1.11-.8 1.7-2.34 1.5-4.42-.4-4.18-3.85-8.98-7.7-10.71z"/>
  <path fill="#2F3E51" d="M389.4 25.79c-3.84-1.74-6.63.24-6.22 4.42.4 4.19 3.85 8.99 7.7 10.72 3.85 1.74 6.63-.24 6.23-4.43-.4-4.18-3.85-8.97-7.7-10.71zM416.89 31.03c-2.8 3.34-3.87 9.36-2.37 13.44 1.5 4.07 5 4.66 7.8 1.32 2.8-3.35 3.86-9.36 2.36-13.44s-4.99-4.67-7.8-1.32zM415.05 113.11c-2.8 3.35-3.86 9.36-2.36 13.44s4.99 4.67 7.79 1.33c2.8-3.35 3.86-9.36 2.36-13.44s-4.99-4.67-7.8-1.33z"/>
  <path fill="#FED36E" d="M389.59 28.43c-1.46-.65-2.7-.6-3.56.01l-37.4 24.44c.85-.61 9.05 10.76 8.22 11.37l37.4-24.44c.83-.6 1.27-1.76 1.12-3.33-.3-3.13-2.89-6.74-5.78-8.05z"/>
  <path fill="#FEC64C" d="M352.19 52.87c-2.9-1.3-4.99.19-4.69 3.33.3 3.14 2.9 6.75 5.8 8.05 2.88 1.3 4.98-.18 4.67-3.33-.3-3.14-2.89-6.74-5.78-8.05z"/>
  <path fill="#778DAB" d="M352.1 55.92c-.67-.3-1.24-.27-1.62 0l-6.46 4.39c.38-.28 4.13 4.9 3.75 5.19l6.45-4.39c.38-.27.59-.8.52-1.51a4.98 4.98 0 00-2.64-3.68z"/>
  <path fill="#CAD8E6" d="M345.64 60.3c-1.32-.59-2.27.09-2.14 1.52a4.99 4.99 0 002.64 3.68c1.32.6 2.28-.08 2.14-1.52a4.99 4.99 0 00-2.64-3.67z"/>
  <path fill="#778DAB" d="M345.08 61.88c-.36-.16-.68-.15-.89 0l-6.66 4.3c.2-.15 2.25 2.69 2.04 2.84l6.67-4.3c.2-.16.32-.45.28-.84a2.73 2.73 0 00-1.44-2z"/>
  <path fill="#CAD8E6" d="M338.41 66.18c-.72-.32-1.24.05-1.17.83.08.79.73 1.68 1.45 2.01.72.33 1.24-.05 1.16-.83a2.72 2.72 0 00-1.44-2z"/>
  <path fill="#6B7E98" d="M334.48 73.45l2.45 1.12 1.81-6.23-2.44-1.11-1.82 6.22z"/>
  <path fill="#778DAB" d="M327.44 78.36l2.44 1.11 7.05-4.9-2.45-1.12-7.04 4.91z"/>
  <path fill="#6B7E98" d="M333.67 64.1l2.63 3.13 2.44 1.11-2.63-3.12-2.44-1.11z"/>
  <path fill="#778DAB" d="M327.44 78.36c-.4.29-.52.98-.23 1.12l2.45 1.1c-.29-.12-.17-.82.22-1.1l-2.44-1.12z"/>
  <path fill="#CAD8E6" d="M330.94 60.72l2.45 1.11 4.51-3.14-2.44-1.11-4.52 3.14z"/>
  <path fill="#CAD8E6" d="M326.3 68.2l2.45 1.11 4.64-7.48-2.45-1.11-4.64 7.48z"/>
  <path fill="#778DAB" d="M328.75 69.31l-2.45-1.11c-.24.38-.19.78 0 .87l2.45 1.11c-.2-.09-.24-.49 0-.87z"/>
  <path fill="#778DAB" d="M333.39 61.83l-4.64 7.48c-.34.54-.11 1.1.31.8l7.05-4.9 2.63 3.13-1.81 6.23-7.05 4.9c-.43.31-.53 1.1-.15 1.14l5.35.52 4.5-3.14 4.3-13.22-5.98-6.08-4.51 3.14z"/>
  <path fill="#FEFEFE" d="M329.95 65.97c-.4-.23-1-.37-1.63-.37-.62 0-1.21.14-1.61.37 0 0-10.25 5.91-13.63 7.9a.72.72 0 000 1.25l19.4 11c.41.24 1.01.38 1.64.38.62 0 1.21-.13 1.62-.37l13.22-7.74a.84.84 0 00-.01-1.45l-19-10.97z"/>
  <path fill="#CAD8E6" d="M329.98 62.27l-3.68 5.93 2.45 1.11 3.07-4.95c-.56-.72-1.08-1.3-1.46-1.66l-.38-.43z"/>
  <path fill="#CAD8E6" d="M328.75 69.31l-2.45-1.11c-.24.38-.19.78 0 .87l2.45 1.11c-.2-.09-.24-.49 0-.87z"/>
  <path fill="#778DAB" d="M328.75 69.31c-.34.54-.11 1.1.31.8l4.56-3.16a27.52 27.52 0 00-1.8-2.59l-3.07 4.95z"/>
  <path fill="#334359" d="M318.67 180.72l161.87 93.1.1-35.4-161.88-93.1-.1 35.4z"/>
  <path fill="#384B65" d="M480.54 273.82l32.73-19.02.1-35.4-32.73 19.02-.1 35.4z"/>
  <path fill="#7B94A0" d="M318.76 145.32l161.88 93.1 32.73-19.02-161.87-93.1-32.74 19.02z"/>
  <path fill="#70A9CA" d="M345.5 116.84l-38.76 22.53c1.25-.73 2.99-.62 4.9.48l168.77 97.08 38.77-22.53-168.78-97.08c-1.9-1.1-3.64-1.2-4.9-.48z"/>
  <path fill="#4485A9" d="M312.26 143.97c-2.06-1.19-3.73-.23-3.74 2.13a8.19 8.19 0 003.72 6.43c2.06 1.2 3.73.24 3.74-2.13a8.18 8.18 0 00-3.72-6.43z"/>
  <path d="M345.51 116.84l-38.77 22.53"/>
  <path fill="#4485A9" d="M380.24 183.22c-2.06-1.2-3.73-.23-3.74 2.13a8.18 8.18 0 003.71 6.43c2.06 1.19 3.74.23 3.74-2.13a8.19 8.19 0 00-3.71-6.43z"/>
  <path fill="#293341" d="M480.2 249.14a8.19 8.19 0 01-3.72-6.43c0-2.37 1.68-3.33 3.74-2.14a8.18 8.18 0 013.7 6.44c0 2.36-1.67 3.32-3.73 2.13zm-34.46-19.9a8.19 8.19 0 01-3.72-6.43c.01-2.36 1.68-3.32 3.74-2.13a8.2 8.2 0 013.71 6.43c0 2.37-1.68 3.32-3.73 2.14zm-32-18.1a8.19 8.19 0 01-3.71-6.44c0-2.36 1.68-3.32 3.73-2.13a8.2 8.2 0 013.72 6.44c0 2.36-1.68 3.32-3.74 2.13zm-33.53-19.36a8.18 8.18 0 01-3.7-6.43c0-2.36 1.67-3.32 3.73-2.13a8.19 8.19 0 013.71 6.43c0 2.36-1.68 3.32-3.74 2.13zm-33.52-19.35a8.19 8.19 0 01-3.7-6.44c0-2.36 1.67-3.32 3.73-2.13a8.2 8.2 0 013.71 6.43c0 2.37-1.68 3.33-3.74 2.14zm-34.45-19.9a8.19 8.19 0 01-3.72-6.43c.01-2.36 1.68-3.32 3.74-2.13a8.18 8.18 0 013.72 6.43c-.01 2.37-1.68 3.32-3.74 2.13zM480.4 238.9l-168.77-97.08c-2.85-1.64-5.17-.32-5.18 2.95 0 3.28 2.3 7.26 5.14 8.9l168.78 97.09c2.84 1.64 5.17.32 5.17-2.95.01-3.28-2.3-7.26-5.14-8.9z"/>
  <path fill="#70A0BA" d="M519.18 214.4l-38.77 22.53c3.8 2.18 6.87 7.51 6.86 11.87-.01 2.16-.78 3.69-2.01 4.4l38.76-22.52c1.24-.72 2-2.24 2.01-4.4.01-4.37-3.06-9.7-6.85-11.88z"/>
  <path fill="#4485A9" d="M480.37 250.75L311.6 153.69c-2.84-1.65-5.15-5.63-5.14-8.9.01-3.28 2.33-4.6 5.18-2.96L480.4 238.9c2.85 1.65 5.15 5.63 5.14 8.9 0 3.28-2.33 4.6-5.17 2.95zm.04-13.82l-168.78-97.08c-3.79-2.2-6.88-.43-6.9 3.93 0 4.36 3.07 9.69 6.86 11.88l168.78 97.07c3.79 2.2 6.88.43 6.9-3.93 0-4.36-3.07-9.68-6.86-11.87z"/>
  <path fill="#4485A9" d="M347.47 164.38c-.25-.2-.5-.37-.75-.52-2.06-1.19-3.73-.23-3.74 2.13a8.19 8.19 0 003.71 6.44c2.06 1.19 3.74.23 3.74-2.13 0-1.19-.4-2.5-1.08-3.66a8.23 8.23 0 00-1.88-2.26zM413.76 202.57c-2.06-1.19-3.73-.23-3.73 2.13a8.19 8.19 0 003.7 6.44c2.07 1.19 3.74.23 3.75-2.13a8.2 8.2 0 00-3.72-6.44zM445.76 220.68c-2.06-1.19-3.73-.23-3.74 2.13a8.19 8.19 0 003.72 6.44c2.06 1.19 3.73.23 3.73-2.14a8.2 8.2 0 00-3.7-6.43zM480.22 240.57c-2.06-1.19-3.73-.23-3.74 2.14a8.18 8.18 0 003.71 6.43c2.06 1.19 3.73.23 3.74-2.13a8.18 8.18 0 00-3.71-6.44z"/>
  <path fill="#618BA4" d="M406.17 184.02c-.8 0-1.58-.17-2.18-.52l-13.6-7.9c-1.21-.7-1.2-1.84.02-2.55l19.1-11.03a4.5 4.5 0 012.2-.53c.8 0 1.59.18 2.19.53l13.6 7.9c1.2.7 1.2 1.84-.01 2.54l-19.12 11.03a4.5 4.5 0 01-2.2.53z"/>
  <path fill="#FEFEFE" d="M427.5 167.78l-13.6-7.9c-1.2-.7-3.17-.7-4.38 0L390.4 170.9c-1.22.7-1.23 1.84-.03 2.54l13.6 7.9c1.21.7 3.17.7 4.4 0l19.1-11.03c1.22-.7 1.23-1.84.02-2.54z"/>
  <path fill="#CDD8E2" d="M413.26 160.98a3.2 3.2 0 00-1.55-.35c-.6 0-1.16.12-1.55.35L392 171.46a.8.8 0 00-.01 1.4l12.64 7.4c.38.22.95.34 1.54.34.6 0 1.17-.13 1.57-.35l18.54-10.53a.69.69 0 000-1.2c-3.23-1.89-13.02-7.54-13.02-7.54z"/>
  <path fill="#CDD8E2" d="M427.49 170.31l-19.11 11.04c-1.23.7-3.19.7-4.4 0l-13.6-7.9c-.6-.35-.9-.8-.9-1.26l.04 1.65c0 .45.3.9.9 1.25l13.6 7.9c1.2.7 3.17.7 4.4 0l19.1-11.03c.61-.35.92-.81.92-1.28l-.04-1.64c0 .46-.3.92-.91 1.28z"/>
  <path fill="#618BA4" d="M453.52 209.74c-.8 0-1.58-.18-2.18-.53l-13.6-7.9c-1.21-.7-1.2-1.84.02-2.54l19.1-11.04c.62-.35 1.4-.52 2.2-.52.8 0 1.59.17 2.19.52l13.6 7.9c1.2.7 1.2 1.84-.02 2.54l-19.1 11.04a4.5 4.5 0 01-2.2.53z"/>
  <path fill="#FEFEFE" d="M474.85 193.35l-13.6-7.9c-1.2-.7-3.17-.7-4.38 0l-19.11 11.03c-1.22.7-1.23 1.84-.03 2.54l13.6 7.9c1.21.7 3.17.7 4.4 0l19.1-11.03c1.22-.7 1.23-1.84.02-2.54z"/>
  <path fill="#CDD8E2" d="M460.6 186.55a3.18 3.18 0 00-1.54-.35c-.6 0-1.16.13-1.55.35l-18.16 10.48a.8.8 0 00-.02 1.4l12.65 7.4c.38.22.94.34 1.54.34.6 0 1.17-.12 1.57-.35l18.54-10.53a.69.69 0 000-1.2c-3.23-1.89-13.02-7.54-13.02-7.54z"/>
  <path fill="#CDD8E2" d="M474.83 195.89l-19.1 11.03c-1.23.7-3.19.7-4.4 0l-13.6-7.9c-.6-.34-.9-.8-.9-1.26l.04 1.65c0 .46.3.9.9 1.26l13.6 7.9c1.2.7 3.17.7 4.39 0l19.11-11.04c.61-.35.92-.81.91-1.28l-.03-1.64c0 .46-.3.93-.92 1.28z"/>
  <path fill="#334359" d="M183.19 262.18l.1 35.4 157.13-90.5-.1-35.4-157.13 90.5z"/>
  <path fill="#384B65" d="M150.46 243.16l.1 35.4 32.73 19.02-.1-35.4-32.73-19.02z"/>
  <path fill="#7B94A0" d="M150.46 243.16l32.72 19.02 157.14-90.5-32.73-19.03-157.13 90.51z"/>
  <path fill="#70A9CA" d="M308.68 143.67l-164.03 94.5 38.77 22.52 164.03-94.5c1.9-1.1 3.64-1.2 4.9-.47l-38.78-22.53c-1.25-.72-2.98-.62-4.89.48z"/>
  <path fill="#4485A9" d="M346.82 170.32a8.18 8.18 0 00-3.71 6.44c0 2.36 1.68 3.32 3.74 2.13a8.19 8.19 0 003.7-6.44c0-2.36-1.67-3.32-3.73-2.13z"/>
  <path d="M313.58 143.19l38.76 22.53"/>
  <path fill="#293341" d="M346.85 178.89c-2.06 1.19-3.73.23-3.74-2.13a8.18 8.18 0 013.71-6.44c2.06-1.19 3.73-.23 3.74 2.13a8.19 8.19 0 01-3.71 6.44zm-28.57 16.28c-2.06 1.19-3.74.23-3.74-2.13a8.19 8.19 0 013.71-6.44c2.06-1.19 3.73-.23 3.74 2.14a8.18 8.18 0 01-3.71 6.43zm-33.14 19.13c-2.06 1.2-3.73.23-3.74-2.13a8.18 8.18 0 013.71-6.43c2.06-1.2 3.73-.24 3.74 2.13a8.19 8.19 0 01-3.71 6.43zm-33.53 19.36c-2.05 1.18-3.72.23-3.73-2.14a8.18 8.18 0 013.7-6.43c2.07-1.19 3.74-.23 3.75 2.13a8.2 8.2 0 01-3.72 6.44zM218.1 253c-2.06 1.19-3.73.23-3.73-2.13a8.19 8.19 0 013.7-6.44c2.06-1.18 3.74-.23 3.75 2.14a8.19 8.19 0 01-3.72 6.43zm-34.46 19.9c-2.05 1.18-3.72.22-3.73-2.14a8.18 8.18 0 013.7-6.43c2.07-1.2 3.74-.23 3.75 2.13a8.18 8.18 0 01-3.72 6.43zm163.83-104.73l-164.03 94.49c-2.85 1.64-5.16 5.63-5.15 8.9.01 3.28 2.33 4.6 5.18 2.95l164.03-94.5c2.85-1.64 5.15-5.62 5.14-8.9 0-3.27-2.32-4.59-5.17-2.94z"/>
  <path fill="#70A0BA" d="M137.8 250.03c0 2.17.77 3.7 2 4.41l38.77 22.53c-1.23-.72-2-2.24-2-4.4-.02-4.37 3.06-9.69 6.85-11.88l-38.77-22.53c-3.8 2.19-6.87 7.52-6.85 11.88z"/>
  <path fill="#4485A9" d="M347.5 180.03l-164.04 94.49c-2.85 1.64-5.17.33-5.18-2.95 0-3.27 2.3-7.26 5.15-8.9l164.03-94.5c2.85-1.64 5.16-.32 5.17 2.96.01 3.27-2.3 7.25-5.14 8.9zm-.05-13.83l-164.03 94.49c-3.8 2.19-6.87 7.52-6.86 11.88.01 4.35 3.11 6.12 6.9 3.93L347.5 182c3.79-2.18 6.86-7.51 6.85-11.87-.01-4.35-3.1-6.12-6.9-3.93z"/>
  <path fill="#4485A9" d="M318.25 186.6a8.19 8.19 0 00-3.71 6.44c0 2.36 1.67 3.32 3.74 2.13a8.18 8.18 0 003.7-6.43c0-2.37-1.67-3.33-3.73-2.14zM285.11 205.74a8.18 8.18 0 00-3.7 6.43c0 2.36 1.67 3.32 3.72 2.13a8.18 8.18 0 003.72-6.43c0-2.37-1.68-3.32-3.74-2.13zM251.59 225.1a8.18 8.18 0 00-3.71 6.42c0 2.37 1.68 3.32 3.73 2.14a8.2 8.2 0 003.72-6.44c0-2.36-1.68-3.32-3.74-2.13zM218.06 244.44a8.19 8.19 0 00-3.7 6.44c0 2.36 1.67 3.32 3.73 2.13a8.19 8.19 0 003.72-6.43c-.01-2.37-1.69-3.32-3.75-2.14zM183.6 264.34a8.18 8.18 0 00-3.7 6.43c0 2.36 1.68 3.32 3.73 2.13a8.18 8.18 0 003.72-6.43c0-2.36-1.68-3.32-3.74-2.13z"/>
  <path fill="#6899B5" d="M210.64 233.13c-.83 0-1.66-.18-2.28-.54l-14.23-8.27c-1.26-.74-1.26-1.93.02-2.66l20-11.54a4.7 4.7 0 012.29-.55c.82 0 1.66.18 2.28.55l14.23 8.26c1.26.74 1.26 1.93-.01 2.66l-20 11.54a4.7 4.7 0 01-2.3.55z"/>
  <path fill="#FEFEFE" d="M232.95 215.7l-14.23-8.28a5.06 5.06 0 00-4.58 0l-19.99 11.55c-1.28.73-1.28 1.92-.02 2.66l14.22 8.26c1.27.74 3.32.74 4.6 0l19.99-11.54c1.27-.73 1.27-1.92.01-2.66z"/>
  <path fill="#7B93AF" d="M218.05 208.58c-.4-.24-.99-.37-1.61-.37-.63 0-1.22.13-1.63.37l-19 10.97a.84.84 0 000 1.45l13.22 7.74c.4.23.99.37 1.61.37.63 0 1.23-.14 1.64-.38l19.4-11a.72.72 0 000-1.26c-3.38-1.98-13.63-7.9-13.63-7.9z"/>
  <path fill="#6F829B" d="M216.2 209.9c-.58 0-1.12.13-1.5.35l-18.68 10.82 13.34 7.78c.37.22.92.34 1.5.34.57 0 1.12-.12 1.5-.34l18.68-10.82-13.35-7.78a3.08 3.08 0 00-1.49-.34z"/>
  <path fill="#CDD8E2" d="M232.94 218.35l-20 11.54a5.06 5.06 0 01-4.59 0l-14.22-8.26c-.63-.37-.94-.84-.94-1.32l.03 1.72c0 .48.32.95.94 1.32l14.23 8.26c1.26.73 3.32.73 4.6 0l19.98-11.54c.64-.37.96-.86.96-1.34l-.04-1.72c0 .48-.32.97-.95 1.34z"/>
  <path fill="#293341" d="M211.25 214.84l8.2 4.77 6.01-3.47-8.2-4.77-6.01 3.47zM219.46 219.61v.58l6-3.47v-.58l-6 3.47z"/>
  <path fill="#293341" d="M211.25 214.84v.58l8.2 4.77v-.58l-8.2-4.77zM206.3 217.7l3.92 2.28 3.7-2.14-3.92-2.27-3.7 2.13z"/>
  <path fill="#293341" d="M210.22 219.97v.58l3.7-2.13v-.58l-3.7 2.13zM206.3 217.7v.57l3.92 2.28v-.58l-3.92-2.27z"/>
  <path fill="#FEFEFE" d="M214.96 220.05l2.11 1.23 1.07-.62-2.11-1.22-1.07.6z"/>
  <path fill="#FEFEFE" d="M217.07 221.28v.57l1.07-.61v-.58l-1.06.62z"/>
  <path fill="#FEFEFE" d="M214.96 220.05v.57l2.12 1.23v-.57l-2.12-1.23zM212.96 221.2l2.11 1.23 1.07-.61-2.11-1.23-1.07.61zM215.07 222.43v.58l1.07-.62v-.57l-1.06.61z"/>
  <path fill="#FEFEFE" d="M212.96 221.2v.58l2.12 1.23v-.58l-2.12-1.23z"/>
  <path fill="#334359" d="M241.64 173.84c.05.11 5.23 10.87.34 14.99-5.18 4.35-16.64 1.57-16.75 1.54l-.67 2.66a38 38 0 008.39.98c3.73 0 7.91-.66 10.8-3.09 6.52-5.5.6-17.77.34-18.28l-2.45 1.2z"/>
  <path fill="#CDD8E2" d="M232.41 163.15l-23.84 13.77a10.23 10.23 0 00-4.65 8.04c0 1.47.53 2.5 1.36 3l3.33 1.93c-.83-.49-1.35-1.52-1.36-3a10.21 10.21 0 014.65-8.03l23.84-13.77c1.3-.75 2.47-.82 3.32-.33l-3.33-1.94c-.85-.49-2.02-.42-3.32.33z"/>
  <path fill="#97B2CF" d="M235.74 165.09l-23.84 13.77a10.21 10.21 0 00-4.65 8.04c.01 2.96 2.1 4.15 4.68 2.66l23.84-13.77a10.22 10.22 0 004.65-8.04c0-2.96-2.1-4.15-4.68-2.66z"/>
  <path fill="#334359" d="M240.42 135.05a7.24 7.24 0 01-6.57 0c-.92-.53-1.38-1.22-1.37-1.92l-.52 45.04c0 .69.46 1.38 1.37 1.91a7.25 7.25 0 006.58 0c.9-.52 1.35-1.2 1.35-1.89l.52-45.03c0 .69-.46 1.37-1.36 1.89z"/>
  <path fill="#334359" d="M240.4 131.24a7.24 7.24 0 00-6.57 0c-1.81 1.05-1.8 2.76.02 3.8a7.24 7.24 0 006.57 0c1.81-1.04 1.8-2.75-.02-3.8z"/>
  <path fill="#7B93AF" d="M242.94 129.86c-3.09 1.8-8.12 1.8-11.23 0-1.57-.9-2.35-2.09-2.35-3.27l-.88 24.25c0 1.2.78 2.38 2.35 3.28 3.11 1.8 8.14 1.8 11.23 0 1.54-.9 2.3-2.06 2.31-3.23l.88-24.26c0 1.17-.77 2.34-2.3 3.23z"/>
  <path fill="#7B93AF" d="M242.9 123.36c-3.1-1.8-8.14-1.8-11.23 0s-3.07 4.7.04 6.5c3.1 1.8 8.14 1.8 11.23 0 3.1-1.8 3.08-4.7-.03-6.5z"/>
  <path fill="#293341" d="M220.73 195.05c-1.5.88-3.95.88-5.47 0-.76-.44-1.14-1.01-1.14-1.59l-.03 12.02c0 .58.38 1.16 1.15 1.6 1.5.87 3.95.87 5.46 0 .74-.44 1.12-1 1.12-1.57l.03-12.03c0 .57-.38 1.14-1.12 1.57z"/>
  <path fill="#293341" d="M220.7 191.89a6.02 6.02 0 00-5.45 0c-1.51.87-1.5 2.29.01 3.16 1.52.88 3.96.88 5.47 0 1.5-.87 1.5-2.29-.02-3.16zM219.05 204.74c-.59.35-1.55.34-2.14 0-.3-.17-.44-.4-.44-.62l-.01 4.7c0 .23.14.45.44.63.6.34 1.55.34 2.14 0 .29-.17.44-.4.44-.62v-4.7c0 .22-.14.44-.43.61z"/>
  <path fill="#293341" d="M219.04 203.5a2.34 2.34 0 00-2.13 0c-.6.35-.59.9 0 1.24.6.34 1.55.35 2.14 0 .59-.34.58-.9 0-1.23zM217.55 209.16c-.15-.5-.28-1.28-.35-2.22l.53 6.8.48.01.53-6.77c-.07.92-.19 1.68-.34 2.18-.26.84-.6.84-.85 0z"/>
  <path fill="#293341" d="M217.43 206.07a1.8 1.8 0 000 1.75c.3.48.8.49 1.1 0 .3-.48.3-1.26-.01-1.75-.3-.48-.8-.48-1.1 0z"/>
  <path fill="#CDD8E2" d="M222.77 177.79c-2.62 1.52-6.88 1.52-9.5 0-1.34-.77-2-1.77-2-2.78l-.05 20.93c0 1 .66 2 2 2.77 2.62 1.52 6.88 1.53 9.5 0 1.3-.75 1.94-1.74 1.95-2.73l.05-20.93c0 1-.66 1.98-1.95 2.74z"/>
  <path fill="#DEE5EB" d="M222.74 172.28c-2.64-1.52-6.9-1.52-9.51 0-2.62 1.52-2.6 3.98.03 5.5 2.63 1.53 6.89 1.53 9.5 0 2.62-1.51 2.6-3.98-.02-5.5z"/>
  <path fill="#CDD8E2" d="M240.3 168.4l-23.85 13.77a10.22 10.22 0 00-4.65 8.05c0 1.47.52 2.5 1.36 2.98l3.33 1.94c-.83-.48-1.35-1.52-1.36-2.99 0-2.96 2.07-6.55 4.65-8.04l23.84-13.77c1.3-.75 2.47-.82 3.32-.33l-3.33-1.93c-.85-.5-2.02-.42-3.32.32z"/>
  <path fill="#97B2CF" d="M243.63 170.34l-23.85 13.77a10.23 10.23 0 00-4.65 8.04c.01 2.96 2.1 4.15 4.68 2.66l23.85-13.76a10.23 10.23 0 004.64-8.05c-.01-2.96-2.1-4.15-4.68-2.66z"/>
  <path fill="#84A2C3" d="M220.54 185.85a5.94 5.94 0 00-2.7 4.66c.01 1.72 1.22 2.41 2.72 1.55a5.95 5.95 0 002.7-4.67c-.01-1.71-1.22-2.4-2.72-1.54zM242.87 173.24a5.95 5.95 0 00-2.7 4.67c0 1.71 1.22 2.4 2.71 1.55a5.94 5.94 0 002.7-4.68c0-1.71-1.22-2.4-2.71-1.54z"/>
  <path fill="#6899B5" d="M259.5 205.68c-.82 0-1.65-.18-2.28-.55L243 196.87c-1.26-.74-1.25-1.93.03-2.66L263 182.66a4.68 4.68 0 012.3-.54c.82 0 1.65.18 2.28.54l14.23 8.27c1.26.73 1.25 1.92-.02 2.66l-19.99 11.54c-.64.37-1.47.55-2.3.55z"/>
  <path fill="#FEFEFE" d="M281.82 188.34l-14.23-8.27a5.05 5.05 0 00-4.58 0l-20 11.55c-1.27.73-1.28 1.92-.02 2.66l14.23 8.26c1.26.73 3.32.73 4.6 0L281.8 191c1.27-.74 1.28-1.93.02-2.66z"/>
  <path fill="#7B93AF" d="M266.92 181.23c-.4-.24-1-.37-1.62-.37-.62 0-1.22.13-1.63.37l-18.99 10.97a.84.84 0 00-.01 1.45l13.22 7.74c.4.23 1 .37 1.62.37a3.4 3.4 0 001.63-.38l19.4-11a.72.72 0 000-1.26c-3.38-1.98-13.62-7.9-13.62-7.9z"/>
  <path fill="#6F829B" d="M265.07 182.55c-.58 0-1.13.13-1.5.35l-18.68 10.82 13.34 7.78c.37.22.91.34 1.49.34s1.13-.13 1.51-.34l18.67-10.82-13.34-7.79a3.09 3.09 0 00-1.5-.34z"/>
  <path fill="#CDD8E2" d="M281.8 191l-19.99 11.54a5.06 5.06 0 01-4.59 0L243 194.28c-.62-.37-.94-.84-.94-1.32l.04 1.72c0 .47.31.95.94 1.31l14.23 8.27c1.26.74 3.31.74 4.59 0l19.99-11.54c.64-.37.96-.86.96-1.34l-.04-1.72c0 .48-.32.97-.96 1.34z"/>
  <path fill="#293341" d="M260.72 186.68l8.21 4.77 6-3.47-8.2-4.77-6 3.47z"/>
  <path fill="#293341" d="M268.93 191.45v.58l6.01-3.47v-.58l-6.01 3.47zM260.72 186.68v.57l8.21 4.78v-.58l-8.2-4.77zM248.46 193.76l1.62.94 3.13-1.8-1.62-.95-3.13 1.8zM250.08 194.7v.58l3.13-1.81v-.57l-3.13 1.8z"/>
  <path fill="#293341" d="M248.46 193.76v.57l1.63.94v-.57l-1.63-.94zM250.82 195.13l1.63.94 3.12-1.8-1.62-.94-3.13 1.8z"/>
  <path fill="#293341" d="M252.44 196.07v.58l3.13-1.8v-.58l-3.13 1.8z"/>
  <path fill="#293341" d="M250.82 195.13v.58l1.63.94v-.58l-1.63-.94zM253.19 196.5l1.62.94 3.12-1.8-1.62-.94-3.12 1.8z"/>
  <path fill="#293341" d="M254.8 197.44l.01.58 3.13-1.8v-.58l-3.13 1.8z"/>
  <path fill="#293341" d="M253.19 196.5v.58l1.62.94v-.58l-1.62-.94zM255.55 197.88l1.62.94 3.13-1.8-1.62-.95-3.13 1.8z"/>
  <path fill="#293341" d="M257.17 198.82v.57l3.13-1.8V197l-3.13 1.8zM255.55 197.88v.57l1.62.94v-.57l-1.62-.94zM255.78 189.53l3.92 2.28 3.7-2.13-3.93-2.28-3.7 2.13z"/>
  <path fill="#293341" d="M259.7 191.81v.58l3.7-2.13v-.58l-3.7 2.13zM255.78 189.53v.58l3.92 2.28v-.58l-3.92-2.28z"/>
  <path fill="#FEFEFE" d="M264.44 191.89l2.11 1.22 1.06-.61-2.1-1.23-1.07.62zM266.55 193.11v.58l1.06-.62v-.57l-1.06.61z"/>
  <path fill="#FEFEFE" d="M264.44 191.89v.57l2.11 1.23v-.58l-2.11-1.22zM262.44 193.04l2.11 1.23 1.06-.62-2.1-1.22-1.07.61z"/>
  <path fill="#FEFEFE" d="M264.55 194.27v.57l1.06-.61v-.58l-1.06.62zM262.44 193.04v.58l2.11 1.22v-.57l-2.11-1.23z"/>
  <path fill="none" d="M136.9 242.3l57.25-32.12 34.7 61.5 82.51 36.38 28.32-49.32-7.77-109.6-172.17-96.82-22.38 15.52-.46 174.46z"/>
  <path fill="#E6B244" d="M255.65 246.1l-17.05 9.75v9.74l59.2 34.25 15.44-8.98-.35-13.7-57.24-31.05z"/>
  <path fill="#FEC64C" d="M238.6 255.85v9.74l59.2 34.25 15.44-8.98-14.36-2.74-60.28-32.27z"/>
  <path fill="#E6B244" d="M176.62 229.88l15.45-8.98.35-124.25-15.45 8.98-.35 124.25z"/>
  <path fill="#FEC64C" d="M164.7 222.6l11.92 7.28.36-126.25-11.91-7.28-.36 126.25z"/>
  <path fill="#4485A9" d="M176.97 105.63l15.45-8.98v-2l-15.44 8.98v2zM279.14 164.62l15.46-8.98v-2l-15.45 8.98v2z"/>
  <path fill="#E6B244" d="M297.8 299.84l15.44-8.98.35-124.25-15.45 8.98-.35 124.25z"/>
  <path fill="#4485A9" d="M279.15 162.62l19 10.97 15.45-8.98-19-10.97-15.45 8.98z"/>
  <path fill="#FEC64C" d="M280.14 164.62l-.35 124.25 19 10.97.29-101.33.06-22.92v-2l-18.99-10.97v2z"/>
  <path fill="#4485A9" d="M298.14 175.59l15.45-8.98v-2l-15.44 8.98v2z"/>
  <path fill="#FEC64C" d="M161.4 98.46l8.54 4.93 126.38 73.11 8.53 4.93.05-14.9-143.45-82.97-.05 14.9z"/>
  <path fill="#FED36E" d="M161.4 83.6l142.63 82.93 23.83-14.29-142.63-82.93L161.4 83.6z"/>
  <path fill="#FEC64C" d="M303.85 181.43l23.97-14.3.04-14.9-23.96 14.3-.05 14.9z"/>
  <path fill="#293341" d="M319.8 210.03l3.06 1.78c.18-.1.33-.35.33-.56l-3.08-1.78c0 .2-.14.46-.32.56z"/>
  <path fill="#FEFEFE" d="M318.11 201.76l.01 5.04 3.08 1.78-.01-5.03-3.08-1.79z"/>
  <path fill="#89BCD5" d="M313.72 204.3l3.07 1.78 4.4-2.53-3.08-1.79-4.4 2.54z"/>
  <path fill="#FEFEFE" d="M313.71 203.08l3.08 1.79 4.4-2.54-3.08-1.79-4.4 2.54z"/>
  <path fill="#FEFEFE" d="M318.1 195.5v5.04l3.08 1.8-.01-5.06-3.08-1.78z"/>
  <path fill="#89BCD5" d="M313.72 204.3l.01 5.03 3.08 1.8-.01-5.05-3.08-1.78z"/>
  <path fill="#89BCD5" d="M316.8 206.08v5.04l4.4-2.53-.01-5.04-4.4 2.53z"/>
  <path fill="#FEFEFE" d="M308.12 212.57l3.08 1.79 4.4-2.54-3.09-1.78-4.39 2.53z"/>
  <path fill="#FEFEFE" d="M312.5 205l.01 5.04 3.08 1.78-.01-5.03-3.08-1.79z"/>
  <path fill="#89BCD5" d="M313.7 198.03l3.08 1.8 4.39-2.55-3.08-1.78-4.39 2.53z"/>
  <path fill="#89BCD5" d="M313.7 198.03l.01 5.05 3.08 1.79-.01-5.05-3.08-1.79zM308.11 207.53l.01 5.04 3.08 1.79-.02-5.04-3.07-1.78z"/>
  <path fill="#89BCD5" d="M311.18 209.32l.02 5.04 4.4-2.54-.02-5.03-4.4 2.53z"/>
  <path fill="#89BCD5" d="M308.11 207.53l3.07 1.8 4.4-2.54-3.08-1.79-4.39 2.53z"/>
  <path fill="#FEFEFE" d="M313.7 196.83l3.07 1.78 4.4-2.53-3.08-1.79-4.4 2.54z"/>
  <path fill="#FEFEFE" d="M318.08 189.24l.01 5.05 3.08 1.79-.02-5.05-3.07-1.79zM308.1 206.32l3.08 1.79 4.4-2.54-3.08-1.79-4.4 2.54z"/>
  <path fill="#FEFEFE" d="M312.48 198.74l.02 5.04 3.07 1.79-.01-5.05-3.08-1.78zM302.51 215.81l3.08 1.79 4.4-2.54-3.08-1.78-4.4 2.53z"/>
  <path fill="#FEFEFE" d="M306.9 208.24v5.03l3.08 1.8-.01-5.04-3.08-1.8z"/>
  <path fill="#293341" d="M319.95 184.02l.1.2 3.07 1.78-.1-.2-3.07-1.78z"/>
  <path fill="#89BCD5" d="M316.76 193.57l.01 5.05 4.4-2.54-.02-5.05-4.4 2.54z"/>
  <path fill="#89BCD5" d="M313.68 191.78l.02 5.05 3.07 1.78-.01-5.04-3.08-1.79zM313.68 191.78l3.08 1.79 4.4-2.54-3.08-1.79-4.4 2.54zM308.1 201.27l3.07 1.79 4.39-2.54-3.08-1.78-4.39 2.53z"/>
  <path fill="#89BCD5" d="M308.1 201.27v5.05l3.08 1.79-.01-5.05-3.08-1.79zM302.5 210.78l3.08 1.78 4.39-2.53-3.08-1.8-4.39 2.55z"/>
  <path fill="#89BCD5" d="M302.5 210.78l.01 5.03 3.08 1.79-.01-5.04-3.08-1.78z"/>
  <path fill="#FEFEFE" d="M308.09 200.07l3.07 1.78 4.4-2.53-3.08-1.8-4.4 2.55z"/>
  <path fill="#FEFEFE" d="M312.47 192.48l.01 5.05 3.08 1.79-.02-5.05-3.07-1.79zM302.5 209.56l3.07 1.78 4.4-2.53-3.08-1.79-4.4 2.54z"/>
  <path fill="#FEFEFE" d="M306.88 201.97v5.05l3.08 1.79v-5.05l-3.08-1.78z"/>
  <path fill="#293341" d="M290.51 226.93l3.07 1.79 29.29-16.9-3.08-1.8-29.28 16.91z"/>
  <path fill="#FEFEFE" d="M292.41 221.92l3.08 1.79 8.46-4.89-3.08-1.78-8.46 4.88z"/>
  <path fill="#89BCD5" d="M292.36 204.14l.05 17.78 3.08 1.79-.05-17.78-3.08-1.79zM302.48 204.51l3.08 1.79 4.4-2.54-3.08-1.78-4.4 2.53zM302.48 204.51l.02 5.05 3.07 1.78-.01-5.04-3.08-1.79z"/>
  <path fill="#FEFEFE" d="M302.48 203.3l3.07 1.8 4.4-2.54-3.08-1.8-4.4 2.54z"/>
  <path fill="#89BCD5" d="M302.46 198.26l.02 5.04 3.07 1.8-.01-5.06-3.08-1.78z"/>
  <path fill="#FEFEFE" d="M300.82 199.26l.05 17.78 3.08 1.78-.05-17.77-3.08-1.79z"/>
  <path fill="#89BCD5" d="M292.36 204.14l3.08 1.79 8.46-4.88-3.08-1.79-8.46 4.88z"/>
  <path fill="#FEFEFE" d="M290.11 201.5l.07 25.25 3.08 1.78-.07-25.25-3.08-1.78z"/>
  <path fill="#293341" d="M290.28 226.95l3.07 1.79.23-.02-3.07-1.79-.23.02z"/>
  <path fill="#89BCD5" d="M311.15 196.8l.01 5.05 4.4-2.53-.02-5.05-4.39 2.53zM308.07 195.02l.02 5.05 3.07 1.78-.01-5.04-3.08-1.8z"/>
  <path fill="#89BCD5" d="M308.07 195.02l3.08 1.78 4.4-2.53-3.08-1.79-4.4 2.54z"/>
  <path fill="#FEFEFE" d="M306.86 195.72l.01 5.05 3.08 1.79-.02-5.05-3.07-1.79z"/>
  <path fill="#89BCD5" d="M302.46 198.26l3.08 1.78 4.4-2.53-3.08-1.79-4.4 2.54z"/>
  <path fill="#89BCD5" d="M305.54 200.04l.01 5.05 4.4-2.53-.02-5.05-4.39 2.53z"/>
  <path fill="#FEFEFE" d="M290.11 201.5l3.08 1.78c0-.2.14-.44.32-.54l-3.07-1.8a.7.7 0 00-.33.56z"/>
  <path fill="#293341" d="M287.95 199.56l3.07 1.79 34.25-19.77-3.07-1.8-34.25 19.78z"/>
  <path fill="#FEFEFE" d="M290.18 226.75l.1.2 3.07 1.79-.1-.2-3.07-1.8z"/>
  <path fill="#293341" d="M322.87 211.81l-29.29 16.9c-.17.11-.32.03-.32-.18l-.07-25.25c0-.2.14-.44.32-.54l29.28-16.91c.18-.1.33-.03.33.17l.07 25.25c0 .2-.15.46-.32.56zm2.4-30.23l-34.25 19.77a.92.92 0 00-.41.72l.08 30.66c0 .27.2.37.42.24l34.25-19.78a.9.9 0 00.41-.71l-.09-30.66c0-.27-.18-.37-.4-.24z"/>
  <path fill="#FEFEFE" d="M316.8 211.12v-5.04l4.38-2.53.02 5.03-4.4 2.54zm-.02-11.3l4.39-2.54.01 5.05-4.39 2.54-.01-5.05zm-.02-6.25l4.4-2.54v5.05l-4.39 2.53-.01-5.04zm-5.56 20.79l-.02-5.04 4.4-2.53.01 5.03-4.4 2.54zm-.03-11.3l4.39-2.54.01 5.05-4.39 2.54-.01-5.05zm-.02-6.25l4.4-2.54v5.05l-4.39 2.53-.01-5.04zm-5.56 20.79l-.01-5.04 4.39-2.53.01 5.03-4.39 2.54zm-.03-11.3l4.4-2.54v5.05l-4.39 2.53-.01-5.04zm-.02-6.26l4.4-2.53v5.05l-4.39 2.53-.01-5.05zm-10.05 23.67l-.05-17.78 8.46-4.88.05 17.77-8.46 4.89zm27.3-37.88l-29.28 16.9a.7.7 0 00-.32.56l.07 25.24c0 .2.15.3.32.19l29.29-16.9c.17-.1.32-.36.32-.57l-.07-25.25c0-.2-.15-.27-.33-.17z"/>
  <path fill="#89BCD5" d="M316.78 199.82l.01 5.05 4.4-2.54-.02-5.05-4.4 2.54z"/>
  <path fill="#293341" d="M322.2 179.79l3.07 1.79.29-.03-3.07-1.79-.3.03z"/>
  <path fill="#89BCD5" d="M311.17 203.06l.01 5.05 4.4-2.54-.02-5.05-4.4 2.54zM305.58 212.56l.01 5.04 4.4-2.54-.02-5.03-4.4 2.53z"/>
  <path fill="#293341" d="M287.62 230.94l.12.27 3.07 1.79-.12-.27-3.07-1.79z"/>
  <path fill="#89BCD5" d="M305.56 206.3l.01 5.04 4.4-2.53-.02-5.05-4.4 2.54z"/>
  <path fill="#4485A9" d="M295.44 205.93l.05 17.78 8.46-4.89-.05-17.77-8.46 4.88z"/>
  <path fill="#293341" d="M287.53 200.28l.09 30.66 3.07 1.79-.08-30.66-3.08-1.79z"/>
  <path fill="#293341" d="M287.53 200.28l3.08 1.8c0-.28.18-.6.41-.73l-3.07-1.79a.92.92 0 00-.42.72z"/>
  <path fill="#2F3E51" d="M387.73 292.27c-7.13 4.15-18.75 4.15-25.94 0-3.61-2.09-5.42-4.83-5.41-7.57l-.1 25.8c0 2.73 1.8 5.47 5.41 7.56 7.19 4.14 18.8 4.15 25.95 0 3.55-2.06 5.32-4.76 5.33-7.46l.1-25.8c-.01 2.71-1.79 5.41-5.34 7.47z"/>
  <path fill="#293341" d="M387.65 277.24c-7.17-4.14-18.8-4.14-25.94 0-7.14 4.16-7.1 10.88.08 15.03 7.19 4.15 18.8 4.15 25.94 0 7.14-4.14 7.1-10.88-.08-15.03z"/>
  <path fill="#FEC64C" d="M366.93 231.04c-1.56-4.04-4.41-7.44-7.35-9.13a7.36 7.36 0 00-4.24-1.14c-4.07.35-5.48 5.51-3.15 11.53l16.07 43.45c1.56 4.04 4.41 7.44 7.34 9.13 1.44.83 2.94 1.47 4.25 1.14 3.52-.9 5.47-5.51 3.14-11.53l-16.06-43.45z"/>
  <path fill="#FEC64C" d="M371.14 228.59c-1.56-4.04-4.4-7.44-7.34-9.13a7.37 7.37 0 00-4.24-1.14c-.68.06-1.28.25-1.8.56l-6.27 2.91c.52-.3 3.18-.96 3.85-1.02 1.34-.11 2.8.3 4.24 1.14 2.94 1.7 5.79 5.1 7.35 9.13l16.06 43.45c1.95 5.02.9 9.42-1.74 10.95l4.61-2.42c2.64-1.53 3.3-5.96 1.35-10.99l-16.07-43.44z"/>
  <path fill="#FED36E" d="M401.41 258.33l-47.83-34.71c-3.59-2.08-6.51-.41-6.53 3.72 0 4.12 2.9 9.15 6.49 11.22l47.83 34.72c4.67.21 6.51.4 6.52-3.72.02-4.12-1.95-11.03-6.48-11.23z"/>
  <path fill="#FEC64C" d="M405.63 255.88l-47.83-34.72c-1.8-1.04-6.06.26-7.25.94l-1.6 1.06c1.18-.68 2.82-.59 4.63.46l47.83 34.71c4.44 1.23 6.5 7.1 6.48 11.23 0 2.05-.69 2.97-1.85 3.65l4.17-1.93c1.17-.68 1.9-2.12 1.9-4.17.01-4.13-1.59-10.26-6.48-11.23z"/>
  <path fill="#FED36E" d="M359.45 234.4c-1.56-4.03-4.41-7.43-7.35-9.13a7.37 7.37 0 00-4.24-1.13c-4.07.35-5.48 5.51-3.15 11.53l16.07 43.45c1.56 4.03 4.4 7.44 7.34 9.13a7.36 7.36 0 004.25 1.13c4.06-.34 5.48-5.5 3.14-11.53l-16.06-43.45z"/>
  <path fill="#FEC64C" d="M363.67 231.95c-1.57-4.03-4.41-7.43-7.35-9.13a7.35 7.35 0 00-4.24-1.13c-.68.06-1.28.25-1.8.55l-4.22 2.45c.53-.3 1.13-.5 1.8-.55 1.34-.12 2.8.3 4.24 1.14 2.94 1.69 5.79 5.09 7.35 9.12l16.06 43.45c1.95 5.02 1.29 9.45-1.34 10.98l4.21-2.45c2.64-1.53 3.3-5.96 1.35-10.98l-16.06-43.45z"/>
  <path fill="#FEC64C" d="M374.82 263.53l4.35 21.31-5 4 9.36-4.59 2.46-6.23-6.68-16.48-4.49 1.99z"/>
  <path fill="#778DAB" d="M396.64 268.66l.03 11.86 5.88-3.37-.03-11.86-5.88 3.37z"/>
  <path fill="#D6E1EA" d="M394.07 267.17l2.57 1.5 5.88-3.38-2.57-1.49-5.88 3.37z"/>
  <path fill="#778DAB" d="M418.6 257.8l.04 11.87 5.88-3.37-.04-11.87-5.88 3.38z"/>
  <path fill="#D6E1EA" d="M416.04 256.32l.03 11.86 2.57 1.49-.04-11.86-2.56-1.5z"/>
  <path fill="#D6E1EA" d="M416.04 256.32l2.56 1.49 5.88-3.38-2.56-1.48-5.88 3.37z"/>
  <path fill="#778DAB" d="M396.64 273.22l.03 4.98 25.8-14.9-.04-4.98-25.8 14.9z"/>
  <path fill="#D6E1EA" d="M396.66 276.52l-.02-7.86-2.57-1.49.02 4.57-.02-.01.03 3.3v4l2.57 1.5v-2.33l-.01-1.68zM397.04 270.47l2.18 1.26 19.35-11.18-2.55-.99-18.98 10.9z"/>
  <path fill="#334359" d="M399.28 262.12a8.04 8.04 0 00-3.64 6.31c0 1.15.41 1.96 1.07 2.34l3.41 1.99c-.65-.38-1.06-1.2-1.06-2.34a8.04 8.04 0 013.63-6.31c1.02-.6 1.94-.65 2.61-.26l-3.42-1.98c-.66-.4-1.58-.34-2.6.25z"/>
  <path fill="#293341" d="M402.7 264.1a8.04 8.04 0 00-3.64 6.32c0 2.31 1.65 3.25 3.66 2.09a8.04 8.04 0 003.65-6.31c-.01-2.32-1.66-3.26-3.68-2.1z"/>
  <path fill="#334359" d="M398.98 274.54a8.05 8.05 0 00-3.65 6.31c0 1.15.42 1.96 1.07 2.34l3.42 1.99c-.66-.38-1.06-1.19-1.07-2.34a8.04 8.04 0 013.64-6.31c1.02-.59 1.94-.64 2.6-.26l-3.41-1.98c-.67-.39-1.59-.34-2.6.25z"/>
  <path fill="#293341" d="M402.4 276.53a8.04 8.04 0 00-3.65 6.31c0 2.31 1.65 3.25 3.67 2.09a8.05 8.05 0 003.64-6.31c0-2.32-1.65-3.26-3.67-2.1z"/>
  <path fill="#334359" d="M421.5 251.11a8.05 8.05 0 00-3.64 6.32c0 1.14.4 1.95 1.06 2.33l3.42 2c-.66-.4-1.06-1.2-1.06-2.35a8.04 8.04 0 013.63-6.31c1.02-.59 1.94-.64 2.6-.26l-3.4-1.98c-.68-.39-1.6-.34-2.61.25z"/>
  <path fill="#293341" d="M424.91 253.1a8.04 8.04 0 00-3.64 6.31c.01 2.31 1.66 3.25 3.67 2.09a8.04 8.04 0 003.65-6.31c-.01-2.32-1.66-3.26-3.68-2.1z"/>
  <path fill="#334359" d="M421.2 263.53a8.04 8.04 0 00-3.64 6.32c0 1.15.4 1.95 1.06 2.34l3.42 1.98c-.66-.38-1.06-1.19-1.07-2.34a8.05 8.05 0 013.64-6.31c1.02-.59 1.94-.64 2.6-.25l-3.41-2c-.67-.38-1.59-.32-2.6.26z"/>
  <path fill="#293341" d="M424.61 265.52a8.05 8.05 0 00-3.64 6.31c0 2.31 1.65 3.25 3.66 2.1a8.05 8.05 0 003.65-6.32c0-2.32-1.65-3.26-3.67-2.1z"/>
  <path fill="#2F3E51" d="M350.2 228.98c-2.2-1.27-4-.25-4 2.27-.01 2.53 1.77 5.6 3.97 6.87 2.2 1.27 3.98.25 3.98-2.27.01-2.53-1.76-5.6-3.96-6.87zM367.98 274.75c-2.2-1.27-4-.25-4 2.27 0 2.53 1.77 5.6 3.97 6.87 2.2 1.27 3.98.25 3.99-2.27 0-2.53-1.77-5.6-3.96-6.87z"/>
  <path fill="#293341" d="M353.56 366.12l.1 35.4 230.48-132.96-.1-35.4-230.47 132.96z"/>
  <path fill="#334359" d="M320.83 347.1l.1 35.4 32.74 19.02-.1-35.4-32.74-19.02z"/>
  <path fill="#7B94A0" d="M320.83 346.42l32.74 19.02 230.47-132.96-32.73-19.02-230.47 132.96z"/>
  <path fill="#70A9CA" d="M552.4 204.47L315.03 341.42l38.77 22.53L591.17 227c1.91-1.1 3.64-1.2 4.9-.47L557.3 204c-1.25-.73-2.99-.63-4.9.47z"/>
  <path fill="#4485A9" d="M590.54 231.12a8.18 8.18 0 00-3.7 6.44c0 2.36 1.67 3.32 3.73 2.13a8.18 8.18 0 003.71-6.43c0-2.36-1.68-3.32-3.74-2.14z"/>
  <path d="M557.3 204l38.76 22.53"/>
  <path fill="#4485A9" d="M522.57 270.37a8.2 8.2 0 00-3.72 6.44c0 2.36 1.68 3.32 3.74 2.13a8.17 8.17 0 003.71-6.43c0-2.37-1.68-3.33-3.73-2.14z"/>
  <path fill="#293341" d="M590.57 239.69c-2.06 1.2-3.73.23-3.74-2.13a8.18 8.18 0 013.71-6.44c2.06-1.18 3.73-.22 3.74 2.14a8.18 8.18 0 01-3.7 6.43zm-34.46 19.9c-2.05 1.18-3.73.23-3.74-2.14a8.2 8.2 0 013.72-6.43c2.06-1.19 3.73-.23 3.73 2.13a8.18 8.18 0 01-3.7 6.43zm-33.52 19.35c-2.06 1.19-3.73.23-3.74-2.13a8.2 8.2 0 013.72-6.44c2.05-1.19 3.72-.23 3.73 2.14a8.18 8.18 0 01-3.71 6.43zm-33.8 19.14c-2.05 1.2-3.72.24-3.73-2.13a8.19 8.19 0 013.71-6.43c2.06-1.2 3.73-.23 3.74 2.13a8.2 8.2 0 01-3.72 6.43zM422 336.92c-2.05 1.19-3.72.23-3.73-2.14a8.2 8.2 0 013.7-6.43c2.07-1.19 3.74-.23 3.75 2.13a8.19 8.19 0 01-3.72 6.44zm-33.52 19.35c-2.06 1.19-3.73.23-3.73-2.13a8.18 8.18 0 013.7-6.43c2.06-1.2 3.74-.24 3.75 2.13a8.19 8.19 0 01-3.72 6.43zm-34.46 19.9c-2.05 1.18-3.72.22-3.73-2.14a8.18 8.18 0 013.71-6.43c2.06-1.2 3.73-.23 3.74 2.13a8.19 8.19 0 01-3.72 6.44zm237.17-147.19L353.8 365.93c-2.85 1.64-5.16 5.63-5.15 8.9.01 3.28 2.33 4.6 5.18 2.95L591.2 240.83c2.85-1.64 5.15-5.63 5.14-8.9 0-3.28-2.32-4.6-5.17-2.95z"/>
  <path fill="#70A0BA" d="M308.18 353.3c0 2.16.77 3.69 2 4.4l38.77 22.53c-1.23-.72-2-2.24-2-4.4-.02-4.36 3.06-9.69 6.85-11.88l-38.77-22.53c-3.8 2.2-6.86 7.52-6.85 11.88z"/>
  <path fill="#4485A9" d="M591.21 240.83L353.84 377.78c-2.85 1.64-5.17.33-5.18-2.95 0-3.27 2.3-7.26 5.14-8.9l237.38-136.95c2.85-1.64 5.16-.32 5.17 2.95.01 3.27-2.29 7.26-5.14 8.9zm-.04-13.83L353.8 363.95c-3.8 2.2-6.87 7.52-6.86 11.88.01 4.35 3.11 6.12 6.9 3.93L591.23 242.8c3.79-2.19 6.86-7.52 6.85-11.87-.01-4.36-3.1-6.13-6.9-3.94z"/>
  <path fill="#4485A9" d="M556.09 251.02c-.26.15-.5.32-.75.52a8.28 8.28 0 00-1.88 2.25 7.57 7.57 0 00-1.09 3.66c.01 2.37 1.69 3.32 3.74 2.13a8.18 8.18 0 003.71-6.43c0-2.36-1.67-3.32-3.73-2.13zM488.77 289.52a8.19 8.19 0 00-3.71 6.43c0 2.37 1.68 3.32 3.73 2.13a8.19 8.19 0 003.72-6.43c0-2.36-1.68-3.32-3.74-2.13zM421.97 328.35a8.19 8.19 0 00-3.71 6.43c0 2.37 1.68 3.33 3.73 2.14a8.2 8.2 0 003.72-6.44c0-2.36-1.68-3.32-3.74-2.13zM455.46 308.87a8.2 8.2 0 00-3.71 6.43c0 2.36 1.68 3.32 3.73 2.13a8.19 8.19 0 003.72-6.43c0-2.37-1.68-3.32-3.74-2.13zM388.45 347.7a8.18 8.18 0 00-3.71 6.44c0 2.36 1.67 3.32 3.73 2.13a8.2 8.2 0 003.72-6.43c-.01-2.37-1.69-3.32-3.74-2.13zM354 367.6a8.18 8.18 0 00-3.72 6.43c0 2.37 1.68 3.32 3.74 2.14a8.19 8.19 0 003.71-6.44c0-2.36-1.68-3.32-3.74-2.13z"/>
  <path fill="#CDD8E2" d="M428.05 327.17l23.87 13.78 23.71-13.78-23.87-13.78-23.71 13.78z"/>
  <path fill="#91ADC9" d="M451.84 372.58l23.72-13.78.07-31.63-23.71 13.78-.08 31.63z"/>
  <path fill="#DAE3EA" d="M427.97 358.8l23.87 13.78.08-31.63-23.87-13.78-.08 31.63z"/>
  <path fill="#CDA58C" d="M404.02 272.85l18.77 10.9 18.88-10.9-18.76-10.9-18.89 10.9z"/>
  <path fill="#886551" d="M405.5 272.85l17.29 10.05 17.41-10.05-17.3-10.05-17.4 10.05z"/>
  <path fill="#618BA4" d="M422.79 313.96l-17.3-10.05 17.41-10.05 17.3 10.05-17.41 10.05z"/>
  <path fill="#B68465" d="M422.79 282.9l17.41-10.05-17.3-10.05-.11 20.1z"/>
  <path fill="#CDA58C" d="M422.9 261.95l18.77 10.9 8.06-10.07-18.76-10.9-8.06 10.07z"/>
  <path fill="#C59375" d="M404.02 272.85l.06 22 18.77 10.9-.06-22-18.77-10.9z"/>
  <path fill="#B68465" d="M422.79 283.75l.06 22 18.88-10.9-.06-22-18.88 10.9z"/>
  <path fill="#CDA58C" d="M391.85 272.8l18.76 10.91 12.18.04-18.77-10.9-12.17-.04z"/>
  <path fill="#CDD8E2" d="M436.58 285.2l3.86 2.23 3.83-2.22-3.86-2.23-3.83 2.23z"/>
  <path fill="#A8BFD6" d="M436.57 322.01l3.86 2.23v-36.8l-3.85-2.23-.01 36.8z"/>
  <path fill="#334359" d="M424.44 278.28a7.78 7.78 0 00-3.52 6.1c0 1.12.4 1.9 1.03 2.27l3.3 1.92c-.63-.37-1.03-1.15-1.03-2.26a7.79 7.79 0 013.52-6.11c.99-.57 1.88-.62 2.52-.25l-3.3-1.92c-.65-.37-1.54-.32-2.52.25z"/>
  <path fill="#293341" d="M427.74 280.2a7.78 7.78 0 00-3.52 6.1c0 2.24 1.6 3.15 3.55 2.03a7.79 7.79 0 003.53-6.1c-.01-2.25-1.6-3.16-3.56-2.03z"/>
  <path fill="#334359" d="M424.14 290.3a7.78 7.78 0 00-3.52 6.1c0 1.12.4 1.9 1.03 2.27l3.31 1.92c-.63-.37-1.03-1.15-1.03-2.26a7.79 7.79 0 013.52-6.11c.98-.57 1.88-.62 2.52-.25l-3.3-1.92c-.65-.38-1.54-.32-2.53.25z"/>
  <path fill="#293341" d="M427.45 292.22a7.79 7.79 0 00-3.52 6.1c0 2.24 1.6 3.15 3.54 2.03a7.78 7.78 0 003.53-6.1c0-2.25-1.6-3.16-3.55-2.03z"/>
  <path fill="#334359" d="M445.8 267.2a7.78 7.78 0 00-3.53 6.11c0 1.11.4 1.9 1.03 2.26l3.31 1.93c-.63-.37-1.03-1.16-1.03-2.27a7.78 7.78 0 013.52-6.1c.98-.57 1.87-.63 2.52-.25l-3.3-1.93c-.65-.37-1.54-.32-2.53.25z"/>
  <path fill="#293341" d="M449.1 269.12a7.78 7.78 0 00-3.52 6.11c0 2.24 1.6 3.15 3.54 2.02a7.78 7.78 0 003.53-6.1c0-2.25-1.6-3.16-3.55-2.03z"/>
  <path fill="#334359" d="M445.5 279.22a7.77 7.77 0 00-3.52 6.11c0 1.11.4 1.9 1.03 2.26l3.3 1.93c-.63-.38-1.02-1.16-1.02-2.27a7.78 7.78 0 013.52-6.1c.98-.58 1.87-.63 2.51-.25l-3.3-1.93c-.64-.37-1.53-.32-2.52.25z"/>
  <path fill="#293341" d="M448.8 281.14a7.78 7.78 0 00-3.51 6.11c0 2.24 1.6 3.15 3.54 2.02a7.78 7.78 0 003.53-6.1c0-2.25-1.6-3.16-3.55-2.03z"/>
  <path fill="#778DAB" d="M427.66 285.88l.04 11.47 5.68-3.26-.03-11.47-5.69 3.26z"/>
  <path fill="#A8BFD6" d="M425.19 284.43l.03 11.48 2.48 1.44-.04-11.47-2.48-1.45z"/>
  <path fill="#A8BFD6" d="M425.19 284.43l2.47 1.45 5.7-3.26-2.49-1.45-5.69 3.26z"/>
  <path fill="#778DAB" d="M448.92 275.37l.03 11.48 5.69-3.26-.03-11.48-5.7 3.26z"/>
  <path fill="#A8BFD6" d="M446.44 273.93l.03 11.48 2.48 1.44-.03-11.48-2.48-1.44z"/>
  <path fill="#A8BFD6" d="M446.44 273.93l2.48 1.44 5.69-3.26-2.48-1.44-5.7 3.26z"/>
  <path fill="#778DAB" d="M427.66 290.28l.04 4.83 24.96-14.42-.04-4.82-24.96 14.41z"/>
  <path fill="#A8BFD6" d="M425.19 288.84l.03 4.82 2.48 1.44-.04-4.82-2.48-1.44zM433.24 284.64v2.42l15.65-9.04-2.47-.95-13.18 7.57z"/>
  <path fill="#778DAB" d="M440.43 324.24l3.82-2.23.02-36.8-3.83 2.22-.01 36.81z"/>
  <path fill="#CDA58C" d="M530.44 205.4l19.11 11.11 19.24-11.1-19.11-11.11-19.24 11.1z"/>
  <path fill="#886551" d="M531.93 205.4l17.63 10.25 17.74-10.24-17.63-10.25-17.74 10.25z"/>
  <path fill="#618BA4" d="M558.59 234.19l-.06-.41 9.87-5.7.38.22-10.2 5.89z"/>
  <path fill="#B68465" d="M549.56 215.65l17.74-10.24-17.63-10.25-.11 20.49z"/>
  <path fill="#CDA58C" d="M549.68 194.3l19.11 11.1 8.21-10.25-19.11-11.11-8.21 10.26z"/>
  <path fill="#C59375" d="M530.44 205.4l.06 22.42 19.12 11.1-.07-22.4-19.11-11.11z"/>
  <path fill="#B68465" d="M549.55 216.51l.07 22.41 19.23-11.1-.06-22.41-19.24 11.1z"/>
  <path fill="#FEFEFE" d="M537.36 208.55l12.22 7.1 12.3-7.1-12.22-7.1-12.3 7.1z"/>
  <path fill="#CDA58C" d="M518.04 205.36l19.11 11.1 12.4.05-19.11-11.1-12.4-.05zM461.15 246.12l19.12 11.1 19.23-11.1-19.1-11.1-19.25 11.1z"/>
  <path fill="#886551" d="M462.65 246.12l17.62 10.24 17.74-10.24-17.63-10.24-17.73 10.24z"/>
  <path fill="#618BA4" d="M480.26 280.12l-19.1-11.1 19.23-11.1 19.1 11.1-19.23 11.1z"/>
  <path fill="#B68465" d="M480.27 256.36l17.74-10.24-17.63-10.24-.11 20.48z"/>
  <path fill="#CDA58C" d="M480.4 235.01l19.1 11.1 8.22-10.25-19.12-11.1-8.2 10.25z"/>
  <path fill="#C59375" d="M461.15 246.12l.06 22.41 19.12 11.1-.06-22.4-19.12-11.11z"/>
  <path fill="#B68465" d="M480.26 257.23l.07 22.4 19.24-11.1-.07-22.41-19.24 11.1z"/>
  <path fill="#CDA58C" d="M448.75 246.07l19.12 11.11 12.4.05-19.12-11.11-12.4-.05z"/>
  <path fill="#618BA4" d="M352.55 156.54c-.85 0-1.69-.18-2.33-.56l-14.5-8.42c-1.28-.74-1.27-1.96.03-2.7l20.37-11.77c.64-.37 1.49-.55 2.33-.55.85 0 1.69.18 2.33.56l14.5 8.42c1.28.74 1.27 1.96-.02 2.7l-20.36 11.76a4.8 4.8 0 01-2.35.56z"/>
  <path fill="#FEFEFE" d="M375.28 139.33l-14.5-8.42a5.15 5.15 0 00-4.66 0l-20.37 11.76c-1.3.75-1.3 1.96-.02 2.7l14.49 8.43c1.28.75 3.38.75 4.68 0l20.36-11.76c1.3-.75 1.3-1.96.02-2.7z"/>
  <path fill="#7B93AF" d="M360.1 132.09a3.4 3.4 0 00-1.65-.38c-.63 0-1.24.14-1.65.38l-19.36 11.17a.86.86 0 000 1.48c3.56 2.1 13.46 7.89 13.46 7.89.41.24 1.01.37 1.65.37.64 0 1.25-.14 1.67-.38l19.75-11.22c.5-.28.5-.98.01-1.27-3.44-2.02-13.88-8.04-13.88-8.04z"/>
  <path fill="#6F829B" d="M358.21 133.44c-.59 0-1.14.13-1.53.35l-19.03 11.02 13.6 7.93c.37.22.93.35 1.51.35.6 0 1.16-.13 1.54-.36l19.03-11.01-13.6-7.93a3.13 3.13 0 00-1.52-.35z"/>
  <path fill="#CDD8E2" d="M375.26 142.04L354.9 153.8c-1.3.75-3.4.75-4.68 0l-14.5-8.42c-.63-.37-.95-.86-.95-1.34l.04 1.75c0 .49.32.97.95 1.34l14.5 8.42c1.28.75 3.37.75 4.67 0l20.37-11.76c.65-.37.97-.87.97-1.36l-.04-1.75c0 .49-.32.98-.97 1.36z"/>
  <path fill="#293341" d="M353.79 137.62l8.36 4.85 6.12-3.53-8.36-4.86-6.12 3.54z"/>
  <path fill="#293341" d="M362.15 142.47v.59l6.12-3.53v-.59l-6.12 3.53z"/>
  <path fill="#293341" d="M353.79 137.62v.58l8.36 4.86v-.59l-8.36-4.85zM341.3 144.83l1.65.95 3.18-1.83-1.65-.96-3.18 1.84z"/>
  <path fill="#293341" d="M342.95 145.78v.6l3.18-1.85v-.58l-3.18 1.84zM341.3 144.83v.58l1.65.96v-.59l-1.65-.95zM343.7 146.23l1.65.96 3.19-1.84-1.65-.96-3.19 1.84zM345.35 147.19v.58l3.19-1.84v-.58l-3.19 1.84z"/>
  <path fill="#293341" d="M343.7 146.23v.58l1.66.96v-.59l-1.66-.95zM346.11 147.62l1.65.96 3.19-1.84-1.65-.96-3.19 1.84z"/>
  <path fill="#293341" d="M347.76 148.58v.59l3.19-1.84v-.59l-3.19 1.84zM346.11 147.62v.6l1.65.95v-.59l-1.65-.96zM348.52 149.02l1.65.96 3.18-1.84-1.65-.95-3.18 1.83z"/>
  <path fill="#293341" d="M350.17 149.98v.59l3.19-1.84v-.59l-3.2 1.84z"/>
  <path fill="#293341" d="M348.52 149.02v.59l1.65.96v-.59l-1.65-.96zM348.75 140.52l4 2.33 3.75-2.18-3.99-2.32-3.76 2.17z"/>
  <path fill="#293341" d="M352.74 142.85v.58l3.77-2.17v-.59l-3.77 2.18z"/>
  <path fill="#293341" d="M348.75 140.52v.6l4 2.31v-.58l-4-2.33z"/>
  <path fill="#FEFEFE" d="M357.57 142.92l2.15 1.25 1.09-.63-2.16-1.25-1.08.63zM359.72 144.17v.59l1.09-.63v-.59l-1.09.63z"/>
  <path fill="#FEFEFE" d="M357.57 142.92v.59l2.15 1.25v-.6l-2.15-1.24zM355.53 144.1l2.16 1.25 1.08-.63-2.15-1.25-1.09.63z"/>
  <path fill="#FEFEFE" d="M357.69 145.35v.58l1.08-.62v-.59l-1.08.63zM355.53 144.1v.58l2.16 1.25v-.58l-2.16-1.25z"/>
  <path fill="#D4DADD" d="M237.65 302.66zm0-.02v-.01.01zm-.01-.02zm-.06-.6v-.03.02zm-2.14-28.16v-.03.03zm0-.06z"/>
  <path fill="#334359" d="M257.31 242.43v-.02.02zm0-.06v-.01.01zm0-.06z"/>
  <path fill="#427C9E" d="M250.47 233.9a7.7 7.7 0 000 0h.09-.09zM250.57 233.9h0zm.03 0z"/>
  <path fill="#6899B7" d="M237.42 222.36v-.04.04z"/>
  <path fill="#D4DADD" d="M261.91 280.69zm-.08-.09zm-.09-.09zm-.08-.08v-.01zm-.09-.1zm-.08-.08zm-.25-.27zm-.08-.08l-.01-.01zm-.09-.1zm-.08-.08zm-.08-.1zM251.94 305.9zm-.01-.02zm0-.02h-.01zm-.01-.02zm0-.01h-.01zm-.01-.02zm-.01-.01zm0-.02zm-.01-.02z"/>
  <path fill="#C9D0D6" d="M250.85 337.54l.05-4.48-.05 4.48z"/>
  <path fill="#2B3644" d="M251.13 339c-.2-.28-.31-.65-.28-1.1v-.36.37c-.03.44.08.8.28 1.1z"/>
  <path fill="#D4DADD" d="M251.13 313.41v-.03.03z"/>
  <path fill="#D9E2E9" d="M525.98 327.7c-.6 0-1.2-.07-1.78-.24-1.23-.38-2.35-1.38-2.48-2.66a2.6 2.6 0 010-.58l.26.25 10.48 2.3c-1.47.3-2.96.56-4.44.76-.67.09-1.36.17-2.04.17zm11.28-2.12c.1-.14.17-.3.25-.47l-.81-3.19c.05-.05.1-.1.14-.17l.06-.07c.01-.35.14-6.07.17-6.43l.02-.49c.4-.06.79-.1 1.17-.13.1.06.2.12.33.17l9.13 2.9s.77.22 1.7.22c.58 0 1.2-.08 1.77-.33.02.16.03.33.02.5-.12 1.6-1.73 2.64-3.17 3.35a65.55 65.55 0 01-10.78 4.14zm-13.59-4.26l.45-.36a36.24 36.24 0 015.35-3.4l.13 2.83c-1.25.36-3.16.81-5 .82-.3 0-.62.04-.93.1z"/>
  <path fill="#293240" d="M531 319.93s-3.33 1.27-6.4 1.28c-2.09 0-4.42 1.7-2.62 3.26l11.02 2.41s3.4.92 4.5-1.77l-1.06-4.2-5.45-.98zM547.92 310.76s-4.65.7-7.57.71c-2 0-3.61 2.59-1.76 3.33l9.13 2.9s3.78 1.06 4.83-1.51l-1.06-5.5-3.57.07z"/>
  <path fill="#293341" d="M522 211.86c-.2-.5-.7-.76-1.13-.6l-13.1 5c-.5.19-.71.76-.48 1.28l4.31 9.72c.22.49.78.72 1.24.51l12.43-5.51c.41-.19.6-.71.4-1.18l-3.67-9.22z"/>
  <path fill="#FEFEFE" d="M508.8 216.5l4.57 10.41 11.02-4.85-4.03-10-11.55 4.45z"/>
  <path fill="#DA6954" d="M514.7 222.7l.56 1.3 1.2-.51-.55-1.3-1.2.52zM515.38 219.7l1.52 3.6 1.18-.51-1.5-3.58-1.2.5zM516.42 217.6l2.1 5 1.16-.5-2.07-4.99-1.2.48zM517.37 215.3l2.74 6.61 1.14-.49-2.7-6.59-1.18.47z"/>
  <path fill="#DA967B" d="M513.65 221.58s-1.27.06-.82 1.94c.52 2.16-.36 2.16-.36 2.16l-2.9-3.02-1.07-2.39s-1.05.36-.73 2.39c.12.74-.31 2.47.12 4.44.08.37.1.76.39 1l5.07 3.01 3.35-.09-1.59-4.84-1.46-4.6zM548.2 244.56c-2.54 1.6-13.94 5.24-15.73 3.25l-4.37 40.3c-.08.62-.08 1.26.02 1.88l3.2 28.77c1.56.02 3.13.05 4.7.13a32.27 32.27 0 010-3.55c.36-6.22 1.52-14.82 1.23-16.68l-.58-9.43 6.05-19.63-.27 15.14c-.04.67-.3 1.86.46 3.83l3.38 22.37c1.35-.48 2.73-.83 4.12-1.08l.8-17.03-.92-7.38s1.62-6.8 2.68-14.47c1.32-9.49-.65-9.9-1.1-13.72-.36-3.13-3.68-12.7-3.68-12.7z"/>
  <path fill="#384B65" d="M548.2 244.56c-2.54 1.6-13.94 5.24-15.73 3.25l-4.37 40.3c-.08.62-.08 1.26.02 1.88l1.5 30.6c2.32 3.57 6.04 2.8 7.28 1.09.01-.35.14-6.07.17-6.43.36-6.22.65-26.11.65-26.11l5-19.54-.27 15.14c-.04.67 2.67 27.79 2.67 27.79 1.09 2.48 3.72 2.79 6.67.62l-.58-20.32-.04-7.75s.74-6.43 1.8-14.1c1.32-9.49-.58-13.57-1.02-17.38-.37-3.13-3.76-9.04-3.76-9.04z"/>
  <path fill="#BDCCD8" d="M536.85 321.75l.05-.07c.01-.35.14-6.07.17-6.43l.02-.49-.02.49c-.03.36-.16 6.08-.17 6.43l-.05.07z"/>
  <path fill="#C08974" d="M552.98 270.91v-.02.02zm.01-.07v-.01.01z"/>
  <path fill="#33465F" d="M533.8 323.1a4.6 4.6 0 01-3.1-1.23c.23-10.5.72-21.21 1.57-31.63.3-3.64 2.15-19.61 6.97-24.44.85-.5 1.74-.95 2.65-1.38l.1-.02a3.14 3.14 0 002.32-1.1c.81-.38 1.62-.76 2.38-1.17.33-.18.61-.39.83-.62 2.7-.7 4.4-1.43 5.5-2.05.43 2.77.66 6.29-.03 11.37v.08l-.02.06c-1.06 7.68-1.8 14.1-1.8 14.1l.04 7.76.58 20.32a6.43 6.43 0 01-3.68 1.45c-1.33 0-2.4-.7-2.99-2.07 0 0-1.2-12.08-2-20.31l-.39-4.15a97.68 97.68 0 01-.28-3.32v-.01l.27-15.14-5 19.54s-.28 18.91-.63 25.62l-.02.49c-.03.36-.16 6.08-.17 6.43l-.05.07a3.92 3.92 0 01-3.05 1.36z"/>
  <path fill="#4280A2" d="M554.05 216.64c-1.3-3.12-4.55 11.72-4.55 11.72l3.82 10.38-6.87 6.03 3.22 2.77a73.8 73.8 0 007.74-4.74c2.44-1.8 1.58-5.33 1.58-5.33s-1-11.39-4.94-20.83z"/>
  <path fill="#6CA0BD" d="M553.62 245.28a48.3 48.3 0 010 0zm4.24-2.86v-.02.02z"/>
  <path fill="#417B9A" d="M553.62 245.27l-.28-2.68.38-9.46a23.5 23.5 0 002.77 4.98c.77 1.01 1.6 1.8 2.46 2.33-.18.69-.5 1.38-1.08 1.96l-.01.02c-.14.13-.29.26-.45.38a47.8 47.8 0 01-3.8 2.47z"/>
  <path fill="#4280A2" d="M554.26 221.45c.2-1.85 1.3-5.13-3.2-8-.72-.46-2.32-.5-3.39-.87-4.5-1.58-2.83-.87-7.81.5 0 0-.48.59-2.92 2.04-1.39.83-2.99 1.42-3.32 1.67-3.76 2.74-1.87 5.56-2.86 6.89-2.32 3.08.4 12.55.4 12.55s1.05 7.6.82 10.55c-.18 2.4-1.26 12.35-1.26 12.35s6.11 4.76 14.87 2.84c8.75-1.92 9.3-4.19 9.3-4.19l-1.55-15.2s.79-19.92.92-21.13z"/>
  <path fill="#417B9A" d="M541.41 262.41c-6.46 0-10.69-3.28-10.69-3.28s1.08-9.95 1.26-12.35c.02-.29.04-.62.04-.99 0-2.25-.38-5.74-.63-7.82.44-.68.9-1.4 1.36-2.16 1.91 9.43 5.88 18.98 11.89 26.33-1.13.19-2.2.27-3.23.27z"/>
  <path fill="#DA967B" d="M537.73 202.77s.9 4.8 1.75 7.66c.12.38.38 2.65.38 2.65 1.44 1.1 7.06 1.73 7.1-.89l-.45-9.31-8.78-.11z"/>
  <path fill="#DA967B" d="M534.52 203.81c-.05 4.04 2.73 5.84 6.56 5.89 0 0 7.12-2.11 7.17-6.08l.9-7.35-14.5-2.63-.13 10.17z"/>
  <path fill="#7C5756" d="M538.05 188.68c-3.17 1.33-8.18 4.47-3.43 7.86 0 0 1.95.51 1.91 3.6-.04 3.1 4.2 5.27 6.73 7.05 2 1.42 4.4 0 4.4 0s5.77-2.66 1.78-14.08c-1.88-5.39-9.15-5.38-11.39-4.43z"/>
  <path fill="#DA967B" d="M536.1 200.3l-.05 3.36c1.4.67 2.58-1.24 2.38-2.98-.27-2.37-2.34-.38-2.34-.38zM516.23 230.15l-4.02-.14s7.02 13.3 8.78 14.42c4.62 2.9 5.67-.26 6.82-2.16l-3.3-4.02-8.28-8.1z"/>
  <path fill="#4280A2" d="M532.12 217.76c-2.92 2.51-2.82 7.67-4.82 12.25a34.62 34.62 0 01-4.08 6.98l-4-3.92c-1.29.99-2.5 2.05-3.5 3.34 2.03 3.58 4.36 7.44 5.27 8.02 3.16 2 4.65 1.13 5.65-.22 0 0 6.87-7.5 10.33-17.14 1.73-4.83.83-14.17-4.85-9.3z"/>
  <path fill="#6B9CB9" d="M521 244.43zm-.02 0v-.01zm-.01-.02zm-.01 0zm-.01-.01zm-.02-.01z"/>
  <path fill="#C58A73" d="M524.2 245.6c-.83 0-1.87-.33-3.2-1.17 1.33.84 2.37 1.18 3.2 1.18 1.13 0 1.87-.62 2.44-1.4-.57.78-1.31 1.4-2.44 1.4zm-3.2-1.17h-.02.01zm-.02 0v-.01zm-.01-.02zm-.01 0zm-.01-.01h-.01zm-.01-.01zm-.02 0v-.01zm0-.02h-.01z"/>
  <path fill="#407996" d="M524.2 245.6c-.83 0-1.87-.33-3.2-1.17h-.02v-.01h-.01v-.01h-.01l-.01-.01h-.01v-.01h-.02v-.01l-.01-.01c-.43-.33-1.1-1.25-1.9-2.47a4.8 4.8 0 003.39 1.46c5.18 0 10.56-8.44 11.14-8.93-3.29 5.82-6.88 9.76-6.9 9.78-.57.78-1.31 1.4-2.44 1.4z"/>
  <path fill="#FEC64C" d="M536.34 189.08c-1.73-.13-4.63 3.76-4.63 3.76s-.3.43.05 1.55c.27.87.92 2.15 2.4 3.96 0 0 6.56 7.03 9.83 7 3.27-.04 5.93-1.41 7.4-3.75 0 0 1.8-2.22-.84-6.46-2.63-4.25-12.48-5.93-14.2-6.06z"/>
  <path fill="#FEC64C" d="M546.67 188.3c-4.65-2.63-8.22.32-9.61 1.71a15.5 15.5 0 00-2.33 3.1s-.93 3.73 3.7 7.57c2.94 2.44 6.38 3.45 9.02 2.67 2.63-.78 4.03-3.41 4.03-4.5 0 0-.15-7.9-4.8-10.54z"/>
  <path fill="#FED36E" d="M540.85 187.59a9.77 9.77 0 00-3.8 2.42c-.38.39-.72.8-1.02 1.18 6.05.13 10.05 6.15 11.37 12.17h.05c2.63-.79 4.03-3.42 4.03-4.5 0 0-.06-2.69-1.02-5.45-.38-.44-5.45-5.1-9.61-5.82z"/>
  <path fill="#FEFEFE" d="M510.3 206.24a12.84 12.84 0 00-12.84 12.83 1.34 1.34 0 002.69 0c0-5.6 4.55-10.14 10.15-10.14a1.34 1.34 0 001.34-1.34c0-.75-.6-1.35-1.34-1.35z"/>
  <path fill="#FEFEFE" d="M510.3 198.51a20.59 20.59 0 00-20.57 20.56 1.34 1.34 0 002.69 0 17.9 17.9 0 0117.88-17.87 1.34 1.34 0 001.34-1.35c0-.74-.6-1.34-1.34-1.34z"/>
  <path fill="#FEFEFE" d="M510.3 191a27.9 27.9 0 00-19.86 8.22 27.9 27.9 0 00-8.23 19.85 1.34 1.34 0 002.69 0c0-6.78 2.64-13.16 7.44-17.95a25.23 25.23 0 0117.96-7.44 1.34 1.34 0 001.34-1.34c0-.75-.6-1.35-1.34-1.35z"/>
</svg>
