<svg xmlns="http://www.w3.org/2000/svg" data-name="Layer 1" viewBox="0 0 1120 829.8">
  <defs/>
  <ellipse cx="975.58" cy="811.06" fill="#3f3d56" rx="144.42" ry="18.74"/>
  <path fill="#f2f2f2" d="M0 27.5h436v272H0z"/>
  <path fill="none" stroke="#3f3d56" stroke-miterlimit="10" stroke-width="2" d="M27.5 1h436v272h-436z"/>
  <path fill="#3f3d56" d="M312.47 202.97A94 94 0 00246 42.5v94z"/>
  <path fill="#ecc31f" d="M246 42.5a94.01 94.01 0 00-44.97 176.56L246 136.5z"/>
  <path fill="#575a89" d="M312.47 202.97L246 136.5l-44.97 82.56a94.05 94.05 0 00111.44-16.1z"/>
  <path fill="#ecc31f" d="M44 216.5h18v18H44z"/>
  <path fill="#3f3d56" d="M70 216.5h18v18H70z"/>
  <path fill="#575a89" d="M96 216.5h18v18H96z"/>
  <path fill="#3f3d56" d="M355 220.5h74v3h-74zM355 229.5h74v3h-74zM355 238.5h74v3h-74z"/>
  <path fill="#f2f2f2" d="M137 406.5h248v272H137z"/>
  <path fill="none" stroke="#3f3d56" stroke-miterlimit="10" stroke-width="2" d="M162 380.5h248v272H162z"/>
  <path fill="#ecc31f" d="M175 621.81h13.37v13.37H175z"/>
  <path fill="#3f3d56" d="M194.31 621.81h13.37v13.37h-13.37z"/>
  <path fill="#575a89" d="M213.63 621.81H227v13.37h-13.37z"/>
  <path fill="#3f3d56" d="M325 627.62h52v2.11h-52zM325 633.95h52v2.11h-52zM325 640.27h52v2.11h-52zM286 428.5v22a66 66 0 0146.67 112.67l15.56 15.56A88 88 0 00286 428.5z"/>
  <path fill="#575a89" d="M348.23 578.73l-15.56-15.56a65.98 65.98 0 01-86.6 5.87l-13.32 17.52a88 88 0 00115.48-7.83z"/>
  <path fill="#ecc31f" d="M220 516.5a66 66 0 0166-66v-22a88 88 0 00-53.25 158.06l13.32-17.52A65.89 65.89 0 01220 516.5z"/>
  <path fill="#ffb9b9" d="M931.62 141s-4.08 30.3 6.42 33.8 7.57 30.31 7.57 30.31l-31.47 23.9-27.98 2.33-7-36.14 4.08-9.32s15.74-18.66 4.67-37.9 43.71-6.99 43.71-6.99z"/>
  <path d="M931.62 141s-4.08 30.3 6.42 33.8 7.57 30.31 7.57 30.31l-31.47 23.9-27.98 2.33-7-36.14 4.08-9.32s15.74-18.66 4.67-37.9 43.71-6.99 43.71-6.99z" opacity=".1"/>
  <path fill="#575a89" d="M902.48 377.07l-36.72 86.27S837.2 447 820.29 448.76s-37.89-18.65-37.89-18.65l20.99-101.42 39.05-107.84 54.21 34.4z"/>
  <path d="M902.48 377.07l-36.72 86.27S837.2 447 820.29 448.76s-37.89-18.65-37.89-18.65l20.99-101.42 39.05-107.84 54.21 34.4z" opacity=".1"/>
  <path fill="#575a89" d="M960.19 743.71v27.98h-26.23l4.08-32.65 22.15 4.67zM1028.38 695.33l19.24 11.66-13.99 32.05-14.57-1.74-13.99-19.82 23.31-22.15z"/>
  <path fill="#2f2e41" d="M965.43 368.9l34.4 81.03s-12.25 89.76-11.66 97.34 1.16 10.5-1.75 16.9-4.08 10.5-2.33 18.08 2.33 10.49 1.16 13.4-9.33 123-13.4 131.15 2.33 21.57-1.75 22.74-34.4-1.75-36.14-8.75 5.83-23.9 1.74-29.14.59-194.1-5.24-206.93-69.95-24.48-69.95-24.48-5.83-37.3-2.33-43.14 8.16-42.55 8.16-42.55zM931.62 767.02s16.33-19.23 30.32 0c0 0 1.16 22.74 11.07 27.4s5.25 23.32-8.74 23.9-32.06 2.91-32.65-4.66 2.34-12.25-2.91-14.58 0-15.73 0-15.73z"/>
  <path fill="#2f2e41" d="M933.37 488.4s-.58 41.97-4.66 47.8-6.41 9.32-4.08 15.74 5.83 18.07 4.08 20.4 1.75 14.57 1.75 14.57 44.88 21.57 65.87 66.45c0 0 21.56 35.56 27.97 36.14s14-4.08 10.5 9.33-16.9 30.89-26.82 29.14-17.48-18.65-17.48-18.65-77.53-78.7-85.69-81.03-31.48-20.98-35.56-32.64-12.82-109-8.74-115.41 19.24-15.16 19.24-15.16z"/>
  <path fill="#2f2e41" d="M1034.21 693s36.14 1.16 36.73 9.9-15.16 60.63-12.83 72.87-18.07 40.22-31.47 34.39-2.92-36.14-2.92-36.14-13.4-41.39-11.07-41.97 25.64-7.58 24.48-14.57-2.92-24.48-2.92-24.48z"/>
  <circle cx="904.52" cy="136.04" r="36.14" fill="#ffb9b9"/>
  <path fill="#ecc31f" d="M940.95 191.7s-19.82 20.99-34.39 17.5-22.15-28.57-22.15-28.57l-26.23-4.66s-18.65 82.77-18.65 90.93 18.65 96.18 18.65 111.92-15.16 25.06 8.16 24.48 12.24-8.16 46.05-8.75 39.05 7 46.05-5.24a97.52 97.52 0 0117.48-21.57l-12.24-43.13-1.75-121.83s-14.94-29.14-21.75-26.81c0 0 3.69 12.82.77 15.74z"/>
  <path fill="#575a89" d="M933.77 170.81s31.08 3.4 39.82 9.82 33.23 11.08 32.65 15.74-28.57 71.11-28.57 71.11-12.82 52.46-1.75 64.7 52.47 145.73 45.47 156.8-29.14-33.8-29.14-33.8-29.73-96.18-46.05-112.5-17.49-104.34-17.49-108.42 5.06-63.45 5.06-63.45zM888.31 177.57s-38.3-14.43-51.7-8.6-21.56 7-21.56 7l-4.67 57.12s-1.75 82.19-16.9 102-25.07 102.6-22.74 110.76-4.08 22.15 5.83 18.65 37.3-83.94 37.3-83.94 0-46.05 16.33-58.87 43.13-65.87 44.3-78.69 12.24-48.38 12.24-48.38z"/>
  <path fill="#ffb9b9" d="M1019.64 361.33s-17.49 32.64-19.82 38.47-18.65 45.47-41.97 36.72 22.74-51.3 22.74-51.3l10.49-35.55s27.4-5.83 28.56 11.66z"/>
  <path fill="#575a89" d="M820.87 175.97h-5.82s-5.83-4.67-12.83-1.75-23.31-1.17-23.31.58-18.07-5.24-25.65-1.75-34.98 4.67-34.98 4.67-11.07 27.97-3.5 33.22 18.66 1.17 23.9 5.25 15.16-.59 18.66 4.66 16.32 14.57 19.23 8.74-2.91-11.07 9.33-4.66 31.48 6.41 31.48 6.41z"/>
  <path fill="#2f2e41" d="M907.78 109.34c-4.9-1.13-9.97.12-14.92.93s-10.41 1.08-14.6-1.68c-3.1-2.04-5-5.42-6.79-8.67a9.97 9.97 0 01-1.46-3.82c-.2-2.4 1.32-4.6 2.94-6.38 7.54-8.28 18.55-12.82 29.66-14.26 9.13-1.18 18.65-.39 27.08 3.3s15.68 10.48 19 19.07a54.13 54.13 0 012.83 13.6 40.66 40.66 0 01.2 10.32 44.19 44.19 0 01-2 7.46l-5.5 16.59a10.92 10.92 0 01-2.15 4.27 3.74 3.74 0 01-4.38.96 13.61 13.61 0 00.2-5.5 4.64 4.64 0 00-3.66-3.7c-2.03-.21-3.75 1.36-5.67 2.03a6.98 6.98 0 01-8.82-5.24c-.3-1.9.21-3.93-.5-5.7-.85-2.1-3.08-3.18-4.76-4.68a10.94 10.94 0 01-3-11.37c.45-1.38 1.72-2 1.46-3.6-.33-2.07-3.4-3.52-5.16-3.93z"/>
  <path fill="#f2f2f2" d="M507 236.5h248v272H507z"/>
  <path fill="none" stroke="#3f3d56" stroke-miterlimit="10" stroke-width="2" d="M532 210.5h248v272H532z"/>
  <path fill="none" stroke="#3f3d56" stroke-miterlimit="10" stroke-width="2" d="M556 227.5v208h201"/>
  <path fill="#575a89" d="M567 362.5h45v72h-45z"/>
  <path fill="#3f3d56" d="M632 313.5h45v121h-45z"/>
  <path fill="#ecc31f" d="M697 256.5h45v178h-45zM553 451.81h13.37v13.37H553z"/>
  <path fill="#3f3d56" d="M572.31 451.81h13.37v13.37h-13.37z"/>
  <path fill="#575a89" d="M591.63 451.81H605v13.37h-13.37z"/>
  <path fill="#3f3d56" d="M703 457.62h52v2.11h-52zM703 463.95h52v2.11h-52zM703 470.27h52v2.11h-52z"/>
  <path fill="#ffb9b9" d="M724.3 177.68c10.64.46 18.53 10.1 17.38 20.68-1.04 9.58-4.88 21.5-16.98 26.08-21.57 8.16-20.4-37.88-16.32-39.63 2.72-1.17 6.99-7.52 15.93-7.13z"/>
  <path fill="#575a89" d="M999.82 193.25l6.42 3.12s13.98 28.56 14.57 32.64 9.9 19.24 6.4 23.32-8.73 14.57-5.24 18.65 11.66 20.4 11.66 26.23-8.74 21.57-2.91 23.32 4.08 24.48 2.91 26.23-16.32 30.3-16.32 30.3-2.91-32.64-31.48-19.23c0 0-2.33-16.32 0-17.49s8.16-8.16 3.5-9.32-11.07-15.16-9.9-16.9 4.07-4.09 1.16-5.84-5.25-11.65-4.67-13.4-6.4-9.91-6.4-9.91z"/>
</svg>
