<svg xmlns="http://www.w3.org/2000/svg" style="isolation:isolate" viewBox="277 224.75 457 203.96">
  <defs/>
  <path fill="#CE9A4C" d="M660.68 340.06h27.19l7.35-5.08h-41.9l7.36 5.08z"/>
  <path fill="#8094B5" d="M660.68 340.06h27.19v23.64h-27.2v-23.64z"/>
  <path fill="#4F6589" d="M667.7 340.06h13.15v23.64h-13.16v-23.64z"/>
  <path fill="#EC9E00" d="M631.04 373.56h86.46a29.68 29.68 0 00-22.08-9.86h-42.3a29.68 29.68 0 00-22.08 9.86z"/>
  <path fill="#CC6300" d="M643.95 373.56h60.65c-3.95-6.27-9.59-9.86-15.5-9.86h-29.66c-5.91 0-11.54 3.59-15.5 9.86z"/>
  <path fill="#FEC64C" d="M659.04 251.19h-44.8a8.38 8.38 0 010-16.76h44.8a8.38 8.38 0 010 16.76z"/>
  <path fill="#214178" d="M701.96 324.16v-4.2c1 0 1.8-.8 1.8-1.8v-13.42c0-8.34 3.26-16.18 9.15-22.08l6.6-6.6a18.27 18.27 0 00-12.9-31.16h-4.65v-4.19h4.64a22.47 22.47 0 0122.45 22.45c0 6-2.34 11.63-6.58 15.86l-6.6 6.6a26.86 26.86 0 00-7.91 19.12v13.42a6 6 0 01-6 6z"/>
  <path fill="#FED36E" d="M697.64 258.5h-38.93c-6.8 0-12.31-5.51-12.31-12.31v-6.76c0-6.8 5.51-12.31 12.31-12.31h38.93c6.8 0 12.32 5.51 12.32 12.31v6.76c0 6.8-5.51 12.31-12.32 12.31z"/>
  <path fill="#FEC64C" d="M687.85 307.94h-42.92a14.12 14.12 0 100 28.24h42.92a14.12 14.12 0 100-28.24zM685.05 242.02a11.5 11.5 0 00-16.27 0l-52.1 52.11a11.5 11.5 0 1016.26 16.27l52.11-52.1a11.5 11.5 0 000-16.28z"/>
  <path fill="#E6B244" d="M681.1 245.97a5.89 5.89 0 00-8.37 0l-52.1 52.11a5.88 5.88 0 000 8.38 5.88 5.88 0 008.37 0l35.64-35.65 16.47-16.47a5.93 5.93 0 000-8.37zm1.98 10.35l-52.11 52.11a8.66 8.66 0 01-6.16 2.55c-2.33 0-4.52-.9-6.16-2.55a8.66 8.66 0 01-2.55-6.16c0-2.33.9-4.52 2.55-6.16l52.1-52.11a8.66 8.66 0 016.17-2.55 8.73 8.73 0 016.16 14.87z"/>
  <path fill="#F6B03E" d="M624.8 305.4a3.11 3.11 0 01-2.2-5.34 3.1 3.1 0 014.41 0 3.1 3.1 0 010 4.42c-.58.59-1.37.91-2.2.91z"/>
  <path fill="#214178" d="M676.92 253.28a3.1 3.1 0 01-3.12-3.12 3.1 3.1 0 013.12-3.13 3.1 3.1 0 013.12 3.13 3.1 3.1 0 01-3.12 3.12z"/>
  <path fill="#FED36E" d="M654.9 312.08l-19.95-19.96A14.12 14.12 0 10615 312.1l19.95 19.95a14.12 14.12 0 1019.97-19.96z"/>
  <path fill="#E6B244" d="M650.96 316.03L631 296.07a8.48 8.48 0 00-6.03-2.5 8.54 8.54 0 00-6.03 14.56l19.95 19.96a8.48 8.48 0 006.04 2.5 8.54 8.54 0 006.03-14.56zm1.97 14.04a11.25 11.25 0 01-8 3.32c-3.03 0-5.87-1.18-8.01-3.32l-19.95-19.96a11.34 11.34 0 018-19.33c3.03 0 5.87 1.18 8 3.32l19.96 19.95a11.34 11.34 0 010 16.02z"/>
  <path fill="#214178" d="M624.97 310.64a8.48 8.48 0 01-6.03-2.5 8.48 8.48 0 01-2.5-6.03c0-2.28.89-4.43 2.5-6.04a8.48 8.48 0 016.03-2.5 8.48 8.48 0 018.53 8.54 8.48 8.48 0 01-8.53 8.53z"/>
  <path fill="#FED36E" d="M624.97 306.34a4.16 4.16 0 01-3-1.24 4.16 4.16 0 01-1.24-3c0-1.14.43-2.18 1.25-3 .8-.8 1.84-1.23 2.99-1.23 1.15 0 2.19.43 3 1.24.8.8 1.24 1.85 1.24 3 0 1.14-.43 2.18-1.24 3-.81.8-1.85 1.23-3 1.23z"/>
  <path fill="#214178" d="M585.56 309.87c1.9.8 4.1.02 5.07-1.81l21.18-40.25a7.83 7.83 0 10-14.38-6.07l-14.1 43.24a3.98 3.98 0 002.23 4.9z"/>
  <path fill="#214178" d="M581.7 300.8l13.06 5.51 1.76 14.04-11.32 8.59-1.3-.55 7.16-10.35-1.8-6.34-7.6-3.2-5.8 3.12-2.43 12.34-1.3-.54-1.73-14.1 11.3-8.53z"/>
  <path fill="#FED36E" d="M621.1 225.66a11.5 11.5 0 00-15.07 6.11L594.1 260a11.5 11.5 0 1021.2 8.95l11.92-28.2a11.5 11.5 0 00-6.12-15.08z"/>
  <path fill="#E6B244" d="M622.1 234.03a5.88 5.88 0 00-10.94-.08l-11.91 28.21a5.93 5.93 0 0010.9 4.61l11.93-28.21c.61-1.46.62-3.07.03-4.53zm2.6-1.05a8.65 8.65 0 01-.05 6.67l-11.93 28.2a8.65 8.65 0 01-4.75 4.69 8.66 8.66 0 01-6.66-.05 8.66 8.66 0 01-4.68-4.75 8.65 8.65 0 01.04-6.67l11.93-28.2c.9-2.15 2.6-3.82 4.75-4.69a8.66 8.66 0 016.66.05c2.15.9 3.81 2.59 4.69 4.75z"/>
  <path fill="#214178" d="M606.92 269.95a5.93 5.93 0 11-4.43-10.97 5.93 5.93 0 014.43 10.97z"/>
  <path fill="#F6B03E" d="M605.88 267.36a3.12 3.12 0 01-4.06-4.11 3.1 3.1 0 014.1-1.67 3.1 3.1 0 011.66 4.1 3.1 3.1 0 01-1.7 1.68z"/>
  <path fill="#214178" d="M667.34 330.8h22.45a3.32 3.32 0 003.32-3.32v-10.84a3.32 3.32 0 00-3.32-3.32h-22.45a3.32 3.32 0 00-3.32 3.32v10.84a3.32 3.32 0 003.32 3.32z"/>
  <path fill="#EC9E00" d="M689.22 325.64h-6.9c-.5 0-.8-.66-.5-1.15l3.44-5.7c.25-.41.77-.41 1.02 0l3.45 5.7c.3.49 0 1.15-.5 1.15zm-21.93-6.86h13.32v1.81H667.3v-1.81zm5.87 5.05h7.45v1.81h-7.45v-1.81zm-5.87-2.52h13.32v1.8H667.3v-1.8z"/>
  <path fill="#8094B5" d="M717.5 428.64h-86.46v-55.08h86.46v55.08z"/>
  <path fill="#4F6589" d="M704.6 428.64h-60.65v-55.08h60.65v55.08z"/>
  <path fill="#B07E2C" d="M717.5 419.3v9.34h-86.46v-9.33h86.46z"/>
  <path fill="#4F6589" d="M699.18 419.3l9.97 9.34h8.01l-9.96-9.33h-8.02zm-16.92 0l9.97 9.34h8.01l-9.97-9.33h-8zm-50.88 0l9.97 9.34h8l-9.96-9.33h-8.01zm33.96 0l9.97 9.34h8l-9.96-9.33h-8.01zm-16.93 0l9.97 9.34h8.01l-9.97-9.33h-8z"/>
  <path fill="#F7941D" d="M545.58 421.84h-10.52l-.06-1c-.1-1.93 3.03-1.45 4.8-2.31.75-.35 2.05-2.55 2.05-2.55h3.38l.35 5.86z"/>
  <path fill="#E37C00" d="M542.71 420.55h2.76l.1 1.3h-10.5l-.07-.54 7.71-.76z"/>
  <path fill="#F7941D" d="M562.5 421.84h-7.23l-.1-1c-.15-1.37.88-1.55 2.19-2.42.56-.38 1.14-2.44 1.14-2.44h3.38l.62 5.86z"/>
  <path fill="#E37C00" d="M560.32 421.2l2.11-.65.07 1.3h-7.25l-.04-.54 5.1-.11z"/>
  <path fill="#214178" d="M538.9 358.2l.41 14.59c.15 4.86.22 9.72.42 14.58l1.21 29.14 4.43.01 1.34-29.04c.07-2.42.33-4.83.53-7.25l.64-7.24 1.3-14.48-10.27-.32z"/>
  <path fill="#214178" d="M547.6 359.19l2.76 14.4c.88 4.81 1.87 9.6 2.67 14.43l4.76 28.93 4.4-.53-2.24-29.27c-.72-9.76-1.49-19.52-2.15-29.3l-10.2 1.34z"/>
  <path fill="#214178" d="M570.87 370.23h-13.7a2.77 2.77 0 01-2.7-2.82l-.02-5.01h19.06l.03 5a2.74 2.74 0 01-2.67 2.83z"/>
  <path fill="#19325C" d="M551.86 313.74c1.62-.37 2.71-1.19 2.84-2.13l.2-1.43h-3.04v3.56zM551.3 303.1l.03.03c.14.48.07 4.22.02 6.05-.01.55.43 1 .98 1h2.57c0-2.8.81-5.7-.46-8.36l-3.13 1.28z"/>
  <path fill="#E0936A" d="M554.19 309.59c-.26 1.05-.87 1.9-1.38 1.9-.5 0-.7-.85-.45-1.9.26-1.05.88-1.9 1.38-1.9.5 0 .7.85.45 1.9z"/>
  <path fill="#214178" d="M562.23 344.48a2.9 2.9 0 01-3.27-2.35l-3.3-17.75a3.63 3.63 0 117.19-1.03l1.85 17.95a2.9 2.9 0 01-2.47 3.18zM538.29 344.66a2.9 2.9 0 01-2.7-2.98l.55-18.04a3.63 3.63 0 117.24.5l-2 17.95a2.9 2.9 0 01-3.1 2.57z"/>
  <path fill="#214178" d="M520.5 341.78l17.54-2.58c1.66-.24 3.18.82 3.36 2.34.19 1.53-1.03 2.92-2.7 3.08l-17.65 1.69-.55-4.53z"/>
  <path fill="#FEC64C" d="M562.21 323.1a4.05 4.05 0 00-4.05-4.05h-16.2a4.05 4.05 0 00-4.05 4.05l1.02 34.18-.18 6.42h4.72l3.8-4.82 4.82 4.82h6.8l-.78-6.42 4.1-34.18z"/>
  <path fill="#FFF" d="M538.35 337.9l.16 5.22h21.3l.62-5.23h-22.08zm.41 13.62h20.04l.63-5.23H538.6l.16 5.23zM544.26 319.05l.63 14.37 10.58-14.37h-11.21z"/>
  <path fill="#E0936A" d="M552.9 319.05c-2.23 2.15-6 2.32-6.73 0l-.64-6.39 7.11-1.2.27 7.59z"/>
  <path fill="#BF7E5A" d="M546 317.26c.24.4.67.79 1.64.79 2.38 0 3.62-1.63 4-3.48l-5.64 2.7z"/>
  <path fill="#19325C" d="M543.63 303.13c-.2.64 0 7.05 0 7.05h-1.35c-.73-2.56-1.99-7.08-.96-9.02.8-1.5 3.99-1.68 3.99-1.68l-1.68 3.65z"/>
  <path fill="#F4A982" d="M542.13 304.22c0-2.36 1.64-3.74 5.13-3.74 3.5 0 5.13 1.38 5.13 3.74 0 1.86.38 5.3.26 7.16a6.05 6.05 0 01-2.33 4.68 4.87 4.87 0 01-3.06 1.2c-1-.01-2.33.13-3.3-.68-1.07-.9-1.06-2.36-2.08-5.2-.63-1.75.25-5.3.25-7.16z"/>
  <path fill="#E0936A" d="M552.4 304.22c0-1.13-.4-2.03-1.17-2.66a3.27 3.27 0 00-1.16 2.66c0 1.6-.66 4.48-.43 6.36a10.9 10.9 0 01-.04 3.49c-.34 1.62-.88 2.81-2.23 3.18.98-.04 2.02-.4 2.95-1.2.56-.47 1-.95 1.34-1.48l.15-.25a5.29 5.29 0 00.44-.95l.07-.18h-.01c.17-.55.3-1.13.34-1.81.12-1.86-.25-5.3-.25-7.16z"/>
  <path fill="#19325C" d="M547.72 296.76c-5.01 0-6.08 6.29-2.75 6.29 3.68 0 5.96-1.02 6.34.05l3.13-1.28c.41-3.48-2.55-5.06-6.72-5.06z"/>
  <path fill="#49341F" d="M547.62 307.25h1.87a.3.3 0 100-.58h-1.87a.3.3 0 000 .58zM542.73 307.25h1.87a.3.3 0 000-.58h-1.87a.3.3 0 000 .58zM548.43 307.68c.26 0 .47.41.47.92 0 .5-.2.92-.47.92-.26 0-.47-.41-.47-.92 0-.5.21-.92.47-.92zM543.78 307.68c.27 0 .48.41.48.92 0 .5-.21.92-.48.92-.26 0-.47-.41-.47-.92 0-.5.21-.92.47-.92z"/>
  <path fill="#FED36E" d="M555.85 303.56c0-4-2.94-7.26-6.57-7.26-5.05 0-8.42 3.25-8.42 7.26h15z"/>
  <path fill="#FEC64C" d="M555.47 303.56c-.36-3.21-2.03-5.82-3.73-5.82-2.37 0-3.66 2.6-3.3 5.82h7.03z"/>
  <path fill="#FED36E" d="M540.34 304.88h15.44c.38 0 .7-.31.7-.7v-.05c0-.38-.32-.7-.7-.7h-15.44a.7.7 0 00-.7.7v.06c0 .38.32.69.7.69z"/>
  <path fill="#FFB188" d="M545.37 308.13l-.8 2.85c-.08.3.15.6.47.6h1.36c.4 0 .47-.51 0-1.25v-2.2c0-.68-.85-.68-1.03 0z"/>
  <path fill="#E0936A" d="M546.4 310.33v-2.2a.54.54 0 00-.1-.32.71.71 0 00-.18.32l-.8 2.85c-.08.3.15.6.47.6h.61c.4 0 .47-.51 0-1.25zM547.2 314.07c-.83.15-1.68.15-2.5 0-.24-.05-.39-.26-.33-.46a.4.4 0 01.46-.28c.74.14 1.49.14 2.22 0a.4.4 0 01.47.28c.05.2-.09.41-.33.46z"/>
  <path fill="#F4A982" d="M547.66 349.16l-2.98.32c-.37.04-.74-.07-1.03-.3l-1.78-1.43a1.41 1.41 0 01.36-2.41l4.07-1.63a2.84 2.84 0 111.36 5.45z"/>
  <path fill="#214178" d="M548.22 343.69l12.69-4.3c1.59-.53 3.27.24 3.72 1.7.45 1.47-.5 3.06-2.12 3.5l-12.95 3.46-1.34-4.36z"/>
  <path fill="#E6B244" d="M640.19 362.96h-35.72v-23.42h35.72v23.42z"/>
  <path fill="#EC9E00" d="M623.82 360.03h-4.93a.3.3 0 000 .6h4.93a.3.3 0 000-.6zm0-.96h-4.93a.3.3 0 000 .6h4.93a.3.3 0 000-.6zm-4.93-.37h4.93a.3.3 0 100-.6h-4.93a.3.3 0 100 .6zm5.21-4.45h-5.5v2.97h5.5v-2.97z"/>
  <path fill="#A63900" d="M637.54 360.52h-1.6a.25.25 0 010-.5h.6v-1.28a.95.95 0 01-.75-.92v-2.2h1.9v2.2c0 .45-.32.83-.75.92v1.28h.6a.25.25 0 110 .5zm-3.33 0h-1.55v-3.62h-.7l1.47-1.48 1.48 1.48h-.7v3.62z"/>
  <path fill="#FED36E" d="M601.2 332.82h23.43l3.3 6.72h-23.42l-3.3-6.72z"/>
  <path fill="#EC9E00" d="M643.48 332.82h-23.41l-3.3 6.72h23.41l3.3-6.72zM616.5 362.96h-12.03v-23.42h12.04v23.42z"/>
  <path fill="#E6B244" d="M399.3 362.96h-35.73v-23.42h35.72v23.42z"/>
  <path fill="#EC9E00" d="M382.92 360.03h-4.93a.3.3 0 100 .6h4.93a.3.3 0 000-.6zm0-.96h-4.93a.3.3 0 000 .6h4.93a.3.3 0 000-.6zm-4.93-.37h4.93a.3.3 0 100-.6h-4.93a.3.3 0 100 .6zm5.21-4.45h-5.49v2.97h5.5v-2.97z"/>
  <path fill="#A63900" d="M396.64 360.52h-1.6a.25.25 0 110-.5h.6v-1.28a.95.95 0 01-.75-.92v-2.2h1.9v2.2c0 .45-.32.83-.74.92v1.28h.6a.25.25 0 110 .5zm-3.33 0h-1.55v-3.62h-.7l1.47-1.48 1.48 1.48h-.7v3.62z"/>
  <path fill="#E6B244" d="M360.3 332.82h23.43l3.3 6.72h-23.42l-3.3-6.72z"/>
  <path fill="#FED36E" d="M402.59 332.82h-23.42l-3.3 6.72h23.41l3.3-6.72zM375.6 362.96h-12.03v-23.42h12.04v23.42z"/>
  <path fill="#EC9E00" d="M517.34 360.03h-4.93a.3.3 0 00-.3.3c0 .16.14.3.3.3h4.93a.3.3 0 000-.6zm0-.96h-4.93a.3.3 0 00-.3.3c0 .16.14.3.3.3h4.93a.3.3 0 000-.6zm-4.93-.37h4.93a.3.3 0 100-.6h-4.93a.3.3 0 00-.3.3c0 .17.14.3.3.3zm5.21-4.45h-5.49v2.97h5.5v-2.97z"/>
  <path fill="#A63900" d="M531.06 360.52h-1.6a.25.25 0 01-.25-.25c0-.14.11-.25.25-.25h.6v-1.28a.94.94 0 01-.74-.92v-2.2h1.89v2.2c0 .45-.32.83-.74.92v1.28h.6c.13 0 .25.11.25.25s-.12.25-.26.25zm-3.33 0h-1.55v-3.62h-.7l1.47-1.48 1.48 1.48h-.7v3.62z"/>
  <path fill="#F4A982" d="M522.96 352.99l-2.99-.21c-.37-.03-.72-.2-.97-.48l-1.49-1.72c-.7-.81-.28-2.1.78-2.31l4.29-.89a2.84 2.84 0 11.38 5.6z"/>
  <path fill="#E6B244" d="M533.71 362.96H498v-23.42h35.72v23.42z"/>
  <path fill="#E6B244" d="M494.73 332.82h23.42l3.3 6.72h-23.42l-3.3-6.72z"/>
  <path fill="#FED36E" d="M537 332.82H513.6l-3.3 6.72h23.41l3.3-6.72zM510.03 362.96H498v-23.42h12.03v23.42z"/>
  <path fill="#4F6589" d="M329.2 428.57h-22.95v-4.53a2.43 2.43 0 012.43-2.43h18.1a2.43 2.43 0 012.42 2.43v4.53zM321.07 421.6h-6.68v-30.79h6.68v30.8z"/>
  <path fill="#495F83" d="M317.73 421.6h-3.34v-30.79h3.34v30.8zM329.2 428.57h-22.95v-2.73h22.95v2.73z"/>
  <path fill="#4F6589" d="M326.77 390.81h-18.09a2.43 2.43 0 01-2.43-2.42v-4.54h22.95v4.54a2.43 2.43 0 01-2.43 2.43z"/>
  <path fill="#F6B03E" d="M726.9 383.6H284.1c-3.92 0-7.1-4.68-7.1-10.45s3.18-10.45 7.1-10.45h442.8c3.92 0 7.1 4.68 7.1 10.45s-3.18 10.45-7.1 10.45z"/>
  <path fill="#445675" d="M290.44 380.97c-2.78 0-5.04-3.4-5.04-7.57s2.26-7.56 5.04-7.56H724c2.78 0 5.04 3.4 5.04 7.56 0 4.18-2.26 7.57-5.04 7.57H290.44z"/>
  <path fill="#8094B5" d="M629.05 370.1a3.3 3.3 0 100 6.6 3.3 3.3 0 000-6.6zm22.36 0a3.3 3.3 0 100 6.6 3.3 3.3 0 000-6.6zm22.36 0a3.3 3.3 0 100 6.6 3.3 3.3 0 000-6.6zm22.36 0a3.3 3.3 0 100 6.6 3.3 3.3 0 000-6.6zm22.36 0a3.3 3.3 0 100 6.6 3.3 3.3 0 000-6.6zm-313.49 0a3.3 3.3 0 100 6.6 3.3 3.3 0 000-6.6zm-44.24 0a3.3 3.3 0 100 6.6 3.3 3.3 0 000-6.6zm21.88 0a3.3 3.3 0 100 6.6 3.3 3.3 0 000-6.6zm-88.95 0a3.3 3.3 0 100 6.6 3.3 3.3 0 000-6.6zm133.67 0a3.3 3.3 0 100 6.6 3.3 3.3 0 000-6.6zm-111.31 0a3.3 3.3 0 100 6.6 3.3 3.3 0 000-6.6zm22.35 0a3.3 3.3 0 100 6.6 3.3 3.3 0 000-6.6zm156.5 0a3.3 3.3 0 100 6.6 3.3 3.3 0 000-6.6zm67.08 0a3.3 3.3 0 100 6.6 3.3 3.3 0 000-6.6zm-22.36 0a3.3 3.3 0 100 6.6 3.3 3.3 0 000-6.6zm44.72 0a3.3 3.3 0 100 6.6 3.3 3.3 0 000-6.6zm-112.27 0a3.3 3.3 0 100 6.6 3.3 3.3 0 000-6.6zm-22.35 0a3.3 3.3 0 100 6.6 3.3 3.3 0 000-6.6zm67.54 0a3.3 3.3 0 100 6.6 3.3 3.3 0 000-6.6zm89.44 0a3.3 3.3 0 100 6.6 3.3 3.3 0 000-6.6z"/>
  <path fill="#FEC64C" d="M461.07 250.03h-44.8a8.38 8.38 0 110-16.76h44.8a8.38 8.38 0 010 16.76z"/>
  <path fill="#214178" d="M504 323v-4.2c1 0 1.8-.8 1.8-1.8v-13.42c0-8.34 3.25-16.18 9.15-22.08l6.6-6.6a18.27 18.27 0 00-12.9-31.16h-4.65v-4.19h4.64A22.47 22.47 0 01531.08 262c0 6-2.34 11.63-6.58 15.87l-6.59 6.6a26.87 26.87 0 00-7.92 19.11V317a6 6 0 01-6 6z"/>
  <path fill="#CE9A4C" d="M482.01 340.06h-27.19l-7.35-5.08h41.9l-7.36 5.08z"/>
  <path fill="#8094B5" d="M482.01 340.06h-27.19v23.64h27.2v-23.64z"/>
  <path fill="#4F6589" d="M475 340.06h-13.16v23.64H475v-23.64z"/>
  <path fill="#FED36E" d="M499.68 257.34h-38.94c-6.8 0-12.31-5.51-12.31-12.31v-6.76c0-6.8 5.51-12.31 12.31-12.31h38.94c6.8 0 12.31 5.51 12.31 12.31v6.76c0 6.8-5.51 12.31-12.31 12.31z"/>
  <path fill="#FEC64C" d="M489.88 306.79h-42.92a14.12 14.12 0 000 28.23h42.92a14.12 14.12 0 100-28.23zM487.09 240.86a11.5 11.5 0 00-16.27 0l-52.12 52.12a11.5 11.5 0 1016.28 16.26l52.1-52.1a11.5 11.5 0 000-16.28z"/>
  <path fill="#E6B244" d="M483.14 253.19l-52.11 52.1a5.88 5.88 0 01-8.38 0 5.88 5.88 0 010-8.36l52.12-52.12a5.88 5.88 0 018.37 0 5.93 5.93 0 010 8.38zm1.97-10.35a8.66 8.66 0 00-6.16-2.55c-2.32 0-4.51.9-6.16 2.55l-52.1 52.1a8.65 8.65 0 00-2.56 6.17c0 2.33.9 4.52 2.55 6.16a8.66 8.66 0 006.16 2.55c2.33 0 4.52-.9 6.16-2.55l52.11-52.11a8.72 8.72 0 000-12.32z"/>
  <path fill="#F6B03E" d="M426.84 304.24a3.11 3.11 0 01-2.21-5.34 3.1 3.1 0 014.42 0 3.1 3.1 0 010 4.42c-.59.59-1.38.92-2.2.92z"/>
  <path fill="#214178" d="M478.95 252.12a3.1 3.1 0 01-3.12-3.12 3.1 3.1 0 013.12-3.13 3.1 3.1 0 013.13 3.13 3.1 3.1 0 01-3.13 3.12z"/>
  <path fill="#FED36E" d="M456.94 310.92L437 290.96a14.12 14.12 0 10-19.97 19.97l19.96 19.95a14.12 14.12 0 1019.96-19.96z"/>
  <path fill="#E6B244" d="M453 326.94a8.48 8.48 0 01-6.04 2.5 8.48 8.48 0 01-6.03-2.5l-19.96-19.96a8.54 8.54 0 0112.07-12.07l19.95 19.96a8.54 8.54 0 010 12.06zm1.97-14.05L435 292.94a11.26 11.26 0 00-8-3.32 11.34 11.34 0 00-8 19.33l19.94 19.96a11.25 11.25 0 008 3.32 11.34 11.34 0 008-19.33z"/>
  <path fill="#214178" d="M427 309.48a8.48 8.48 0 01-6.03-2.5 8.48 8.48 0 01-2.5-6.03c0-2.28.9-4.42 2.5-6.04a8.48 8.48 0 016.03-2.5c2.28 0 4.42.9 6.04 2.5a8.48 8.48 0 012.5 6.04c0 2.28-.9 4.42-2.5 6.03a8.48 8.48 0 01-6.04 2.5z"/>
  <path fill="#FED36E" d="M427 305.19a4.16 4.16 0 01-3-1.25 4.15 4.15 0 01-1.23-3c0-1.14.43-2.18 1.24-3 .8-.8 1.84-1.23 3-1.23 1.14 0 2.18.43 3 1.24.8.8 1.23 1.85 1.23 3s-.43 2.19-1.24 3c-.8.8-1.85 1.24-3 1.24z"/>
  <path fill="#EC9E00" d="M511.65 373.56h-86.46a29.68 29.68 0 0122.08-9.86h42.3c8.42 0 16.45 3.59 22.08 9.86z"/>
  <path fill="#CE9A4C" d="M498.74 373.56H438.1c3.95-6.27 9.59-9.86 15.5-9.86h29.66c5.91 0 11.54 3.59 15.5 9.86z"/>
  <path fill="#214178" d="M384.84 313.24c1.86.9 4.1.22 5.15-1.56l23.13-39.16a7.83 7.83 0 10-14.07-6.78l-16.2 42.5a3.98 3.98 0 001.99 5z"/>
  <path fill="#214178" d="M381.43 303.98l12.77 6.16 1.07 14.1-11.73 8.02-1.26-.6 7.65-10-1.48-6.41-7.43-3.58-5.95 2.84-3.04 12.2-1.26-.6-1.04-14.17 11.7-7.96z"/>
  <path fill="#FED36E" d="M424.46 230.86a11.5 11.5 0 00-15.35 5.38l-13.3 27.59a11.5 11.5 0 1020.73 9.99l13.3-27.6a11.5 11.5 0 00-5.38-15.36z"/>
  <path fill="#E6B244" d="M424.8 243.8l-13.29 27.6a5.88 5.88 0 01-7.9 2.75 5.93 5.93 0 01-2.76-7.9l13.29-27.59a5.88 5.88 0 017.9-2.76 5.88 5.88 0 012.76 7.9zm-1.55-10.42a8.66 8.66 0 00-6.66-.38 8.66 8.66 0 00-4.97 4.45l-13.3 27.6a8.65 8.65 0 00-.36 6.65 8.66 8.66 0 004.44 4.97 8.67 8.67 0 006.66.38 8.66 8.66 0 004.97-4.44l13.29-27.6a8.65 8.65 0 00.37-6.66 8.65 8.65 0 00-4.44-4.97z"/>
  <path fill="#214178" d="M408.13 274.4a5.93 5.93 0 11-3.89-11.18 5.93 5.93 0 013.9 11.19z"/>
  <path fill="#F6B03E" d="M407.21 271.77a3.13 3.13 0 11.32-5.77c.75.37 1.32 1 1.6 1.8a3.1 3.1 0 01-1.92 3.97z"/>
  <path fill="#214178" d="M491.82 329.64h-22.44a3.32 3.32 0 01-3.32-3.32v-10.84a3.32 3.32 0 013.31-3.31h22.45a3.32 3.32 0 013.32 3.31v10.84a3.32 3.32 0 01-3.32 3.32z"/>
  <path fill="#EC9E00" d="M469.94 324.48h6.9c.5 0 .8-.66.51-1.15l-3.45-5.7c-.25-.41-.77-.41-1.02 0l-3.44 5.7c-.3.49 0 1.15.5 1.15zm21.94-6.86h-13.32v1.81h13.32v-1.81zm-5.87 5.05h-7.45v1.81H486v-1.8zm5.87-2.52h-13.32v1.8h13.32v-1.8z"/>
  <path fill="#8094B5" d="M425.19 428.64h86.46v-55.08h-86.46v55.08z"/>
  <path fill="#4F6589" d="M438.1 428.64h60.64v-55.08H438.1v55.08z"/>
  <path fill="#6082B5" d="M462.37 389.93h-4.2v4.2h4.2v-4.2zm8.15 0h-4.2v4.2h4.2v-4.2zm-16.3 0h-4.2v4.2h4.2v-4.2zm32.6 0h-4.2v4.2h4.2v-4.2zm-8.15 0h-4.2v4.2h4.2v-4.2zm-16.3-7.37h-4.2v4.2h4.2v-4.2zm-12.35 0v4.2h4.2v-4.2h-4.2zm28.65 0h-4.2v4.2h4.2v-4.2zm8.15 0h-4.2v4.2h4.2v-4.2zm-16.3 0h-4.2v4.2h4.2v-4.2z"/>
  <path fill="#B07E2C" d="M511.65 419.3v9.34h-86.46v-9.33h86.46z"/>
  <path fill="#4F6589" d="M493.33 419.3l9.97 9.34h8.01l-9.97-9.33h-8zm-16.92 0l9.97 9.34h8l-9.96-9.33h-8.01zm-50.88 0l9.97 9.34h8l-9.96-9.33h-8.01zm33.95 0l9.97 9.34h8.01l-9.96-9.33h-8.02zm-16.92 0l9.97 9.34h8.01l-9.97-9.33h-8z"/>
  <path fill="#214178" d="M335.58 365.52h-2.5a3.65 3.65 0 00-3.65 3.85l1.25 23.58a3.65 3.65 0 007.3 0l1.25-23.58a3.65 3.65 0 00-3.65-3.85z"/>
  <path fill="#214178" d="M333.36 372.7h10.55a3.95 3.95 0 003.95-3.94v-3.88H329.4v3.88a3.95 3.95 0 003.95 3.94zM330.68 392.7l-1.5 29.2c-.06 1.12.78 2 1.9 2 1.13 0 2.15-.88 2.33-2l4.6-29.2a3.26 3.26 0 00-3.26-3.88 4.17 4.17 0 00-4.07 3.87z"/>
  <path fill="#214178" d="M330.69 427.68a1.76 1.76 0 01-1.79-1.93l.3-3.93h4.21l-.53 3.93a2.27 2.27 0 01-2.19 1.93z"/>
  <path fill="#F7941D" d="M333.2 423.69c-1.52.54-2.95.68-4.2 0l-.5 5.02h6.75l.14-1.32c.05-.43-.07-.84-.32-1.16l-.34-.43-1.54-2.12z"/>
  <path fill="#214178" d="M340.98 393.04l3.64 29.01a2.12 2.12 0 004.22-.3l-.54-29.24a3.67 3.67 0 10-7.32.53z"/>
  <path fill="#214178" d="M347.14 427.67a2 2 0 01-2.12-1.79l-.4-3.9 4.21-.3.16 3.92a2 2 0 01-1.85 2.07z"/>
  <path fill="#F7941D" d="M355.87 428.7v-.69c0-.76-.5-1.44-1.22-1.66l-3.22-1-2.5-1.67c-.1 1.45-2.4 1.46-4.12 0v5.03h11.06z"/>
  <path fill="#214178" d="M343.94 365.52l-2.5.18a3.65 3.65 0 00-3.37 4.1l2.94 23.43a3.65 3.65 0 007.28-.52l-.44-23.62a3.65 3.65 0 00-3.91-3.57z"/>
  <path fill="#FED36E" d="M349.04 361.14l1.08-32.31a4.27 4.27 0 00-4.27-4.27h-17.07a4.27 4.27 0 00-4.26 4.27l4.32 28.6-.82 10.43h21.22l-.2-6.72z"/>
  <path fill="#FEC64C" d="M344.84 348.31l-2.63-17.43c.02-.92.13-1.69.54-2.18a3.47 3.47 0 00-2.02-.59H326.9c-1.76 0-2.02 1.17-2.06 2.77l4.01 26.56-.65 8.24h9.74a6.24 6.24 0 005.93-4.44c1.3-4.16 1.64-8.58.98-12.93z"/>
  <path fill="#FFF" d="M326.78 343.81l.8 5.23h21.86l.18-5.23h-22.84zm2.06 13.63h20.32l.18-5.23h-21.29l.8 5.23z"/>
  <path fill="#F4A982" d="M368.57 349.17l3.04.84c.38.1.7.34.9.66l1.24 1.9c.58.9-.1 1.86-1.22 1.83h-4.58c-1.96-.05-3.44-1.78-2.97-3.48.4-1.41 2-2.2 3.59-1.75z"/>
  <path fill="#E0936A" d="M367.93 350.15l2.47.69c.3.08.57.27.74.53l1 1.55c.47.73-.08 1.5-1 1.48h-3.71c-1.6-.04-2.8-1.45-2.41-2.82.31-1.15 1.62-1.79 2.91-1.43z"/>
  <path fill="#E0936A" d="M368 351.42a1.5 1.5 0 01-.2 2.98h-3.68v-3.53l3.88.55z"/>
  <path fill="#214178" d="M347.32 327.06a2.77 2.77 0 013.03 2.5l1.86 19.61 11.91 1.7v3.53l-14.66-.03c-1.3 0-2.42-1-2.55-2.32l-.02-.18-2.07-21.78a2.78 2.78 0 012.5-3.02z"/>
  <path fill="#E37C00" d="M328.59 427.77l-.1.94h6.76l.1-.94h-6.76zM344.81 428.71h11.06v-.7l-.04-.24h-11.02v.94z"/>
  <path fill="#F4A982" d="M345.72 313.8l1.41 3.2c.1.2-.05.54-.3.54h-1.6l.49-3.74z"/>
  <path fill="#E0936A" d="M345.63 314.49l1.16 2.61c.08.16-.05.44-.26.44h-1.3l.4-3.05z"/>
  <path fill="#F4A982" d="M345.6 311c0-2.17-1.3-5.16-6.44-5.16-3.22 0-6.45 1.37-6.45 5.17 0 1.71 1.3 5.01 1.96 6.6 1.08 2.6 3.28 5.42 8.12 5.42.64 0 1.56 0 1.98-.5.96-1.16.99-3.6 1.07-4.92.06-.9-.01-2.22-.09-3.51-.03-.54.3-1.12.28-1.61-.03-.57-.42-1.05-.42-1.48z"/>
  <path fill="#E0936A" d="M344.77 322.53c-1.15.03-1.26-2.44-1.15-3.79h-.01c.07-.4.12-.8.14-1.13.06-.9-.01-2.22-.09-3.51-.03-.54.3-1.12.28-1.61-.03-.57-.42-1.05-.42-1.48 0-2.02-1.13-4.73-5.39-5.12-2.84.27-5.42 1.73-5.42 5.12 0 1.71 1.3 5.01 1.96 6.6a8.43 8.43 0 004.07 4.57l.02.01.15.06c.28.13.6.25.91.35l.31.09c.31.08.64.15.99.2l.16.04h.01c.47.06.96.1 1.5.1.64 0 1.56 0 1.98-.5z"/>
  <path fill="#E0936A" d="M340.33 324.56h-6.81l1.7-4.64c.26-.75.55-1.79 1.95-1.79 3.1 0 4.12 2 3.82 3.8l-.66 2.63z"/>
  <path fill="#19325C" d="M345.2 306.72a5.84 5.84 0 00-5.82-2.34c-2.62.42-2.87 1.36-4.1 2.38-2.68 0-3.43 2.92-3.43 6.1 0 2.81 2.55 6.64 2.55 6.64-.62 2.82 3.79 1.74 5.88-.1.38-.33 1.03-.96.8-1.86-.74 0-1.01-.98-1.01-2.18 0-1.2.52-2.46 1-2.19 1.4.81 1.1-.26 1.1-.56 0-1.32 2.93-3.04 3.29-3.59.48-.73.25-1.55-.26-2.3z"/>
  <path fill="#214178" d="M344.32 307.3a4.57 4.57 0 00-3.9-1.95c-5.1.1 1 13-4.31 14.8a6.84 6.84 0 003.47-1.54c.18-.16.3-.3.38-.4-.5-.4-.95-1.23-.95-2.85 0-1.27.52-3.28 1.93-3.28l.23.02c.3-1.21 1.63-2.26 2.73-3.12l.67-.54c.07-.1.26-.38-.25-1.13z"/>
  <path fill="#FEC64C" d="M331.15 309.36c0-3.94 3.2-7.14 7.14-7.14 5.48 0 9.14 3.2 9.14 7.14h-16.28z"/>
  <path fill="#FED36E" d="M340.38 309.36c-.54-3.16.35-5.72 1.99-5.72 2.28 0 4.24 2.56 4.78 5.72h-6.77zM348.03 310.8H331.2a.72.72 0 010-1.44h16.83a.72.72 0 010 1.44z"/>
  <path fill="#E0936A" d="M344.37 314.34c.93-.02 1.4.03 1.44.68l-.06-.92c-.02-.37.13-.77.22-1.14-.57-.42-1.35.27-1.6 1.38z"/>
  <path fill="#19325C" d="M344.99 314.24c0 .4.13.74.3.74.17 0 .3-.34.3-.74 0-.41-.13-.74-.3-.74-.17 0-.3.33-.3.74zM344.85 313.08l-.21-.11a.25.25 0 01.08-.35c.45-.28.88-.3 1.31-.3a.25.25 0 010 .5c-.44 0-.74.04-1.05.23l-.13.03z"/>
  <path fill="#F4A982" d="M341.75 316.35c-.11.53-.3.81-.48.81-.16 0-.36-.28-.47-.81-.21-1.02-.12-2.88.47-2.88.6 0 .7 1.86.48 2.88z"/>
</svg>
